  0
SECTION
  2
ENTITIES
  0
POLYLINE
 70
     1
  0
VERTEX
 10
0
 20
0
  0
VERTEX
 10
7.59367
 20
0
  0
VERTEX
 10
0.388168
 20
-5.91768
  0
SEQEND
  0
POLYLINE
 70
     1
  0
VERTEX
 10
7.59367
 20
0
  0
VERTEX
 10
0.388168
 20
-5.91768
  0
VERTEX
 10
6.34725
 20
-9.6399
  0
SEQEND
  0
POLYLINE
 70
     1
  0
VERTEX
 10
0.388168
 20
-5.91768
  0
VERTEX
 10
1.66533e-16
 20
-2.66454e-15
  0
VERTEX
 10
-7.14101
 20
-1.15215
  0
SEQEND
  0
POLYLINE
 70
     1
  0
VERTEX
 10
6.34725
 20
-9.6399
  0
VERTEX
 10
7.59367
 20
1.77636e-15
  0
VERTEX
 10
13.0571
 20
-7.55575
  0
SEQEND
  0
POLYLINE
 70
     1
  0
VERTEX
 10
0.388168
 20
-5.91768
  0
VERTEX
 10
6.34725
 20
-9.6399
  0
VERTEX
 10
0.95068
 20
-10.0658
  0
SEQEND
  0
POLYLINE
 70
     1
  0
VERTEX
 10
7.59367
 20
0
  0
VERTEX
 10
0
 20
0
  0
VERTEX
 10
-5.45695
 20
4.74797
  0
VERTEX
 10
-5.51723
 20
11.5568
  0
VERTEX
 10
-1.97056
 20
18.1907
  0
VERTEX
 10
5.5438
 20
19.3515
  0
VERTEX
 10
11.0801
 20
13.4427
  0
VERTEX
 10
12.5456
 20
6.29243
  0
VERTEX
 10
7.59367
 20
0
  0
VERTEX
 10
2.81155
 20
9.09535
  0
SEQEND
  0
POLYLINE
 70
     1
  0
VERTEX
 10
-7.14101
 20
-1.15215
  0
VERTEX
 10
0.388168
 20
-5.91768
  0
VERTEX
 10
-6.33978
 20
-6.81396
  0
SEQEND
  0
POLYLINE
 70
     1
  0
VERTEX
 10
7.59367
 20
1.77636e-15
  0
VERTEX
 10
13.0571
 20
-7.55575
  0
VERTEX
 10
15.3699
 20
-1.90949
  0
SEQEND
  0
POLYLINE
 70
     1
  0
VERTEX
 10
13.0571
 20
-7.55575
  0
VERTEX
 10
6.34725
 20
-9.6399
  0
VERTEX
 10
11.458
 20
-11.4243
  0
SEQEND
  0
POLYLINE
 70
     1
  0
VERTEX
 10
0.95068
 20
-10.0658
  0
VERTEX
 10
0.388168
 20
-5.91768
  0
VERTEX
 10
-2.0613
 20
-12.4171
  0
SEQEND
  0
POLYLINE
 70
     1
  0
VERTEX
 10
6.34725
 20
-9.6399
  0
VERTEX
 10
0.95068
 20
-10.0658
  0
VERTEX
 10
3.78118
 20
-13.2776
  0
SEQEND
  0
POLYLINE
 70
     1
  0
VERTEX
 10
-1.97056
 20
18.1907
  0
VERTEX
 10
5.5438
 20
19.3515
  0
VERTEX
 10
3.9176
 20
25.4203
  0
SEQEND
  0
POLYLINE
 70
     1
  0
VERTEX
 10
12.5456
 20
6.29243
  0
VERTEX
 10
11.0801
 20
13.4427
  0
VERTEX
 10
18.3236
 20
8.25329
  0
SEQEND
  0
POLYLINE
 70
     1
  0
VERTEX
 10
11.0801
 20
13.4427
  0
VERTEX
 10
5.5438
 20
19.3515
  0
VERTEX
 10
11.0633
 20
22.3533
  0
SEQEND
  0
POLYLINE
 70
     1
  0
VERTEX
 10
-5.45695
 20
4.74797
  0
VERTEX
 10
-5.51723
 20
11.5568
  0
VERTEX
 10
-11.3145
 20
11.4627
  0
SEQEND
  0
POLYLINE
 70
     1
  0
VERTEX
 10
-1.97056
 20
18.1907
  0
VERTEX
 10
-5.51723
 20
11.5568
  0
VERTEX
 10
-10.5245
 20
14.48
  0
SEQEND
  0
POLYLINE
 70
     1
  0
VERTEX
 10
-7.14101
 20
-1.15215
  0
VERTEX
 10
-6.33978
 20
-6.81396
  0
VERTEX
 10
-13.0522
 20
-7.8197
  0
SEQEND
  0
POLYLINE
 70
     1
  0
VERTEX
 10
-6.33978
 20
-6.81396
  0
VERTEX
 10
0.388168
 20
-5.91768
  0
VERTEX
 10
-3.07455
 20
-11.9386
  0
SEQEND
  0
POLYLINE
 70
     1
  0
VERTEX
 10
11.458
 20
-11.4243
  0
VERTEX
 10
13.0571
 20
-7.55575
  0
VERTEX
 10
18.8335
 20
-11.1197
  0
SEQEND
  0
POLYLINE
 70
     1
  0
VERTEX
 10
6.34725
 20
-9.6399
  0
VERTEX
 10
11.458
 20
-11.4243
  0
VERTEX
 10
7.90371
 20
-13.8106
  0
SEQEND
  0
POLYLINE
 70
     1
  0
VERTEX
 10
-2.0613
 20
-12.4171
  0
VERTEX
 10
0.95068
 20
-10.0658
  0
VERTEX
 10
1.40529
 20
-14.4229
  0
SEQEND
  0
POLYLINE
 70
     1
  0
VERTEX
 10
3.78118
 20
-13.2776
  0
VERTEX
 10
0.95068
 20
-10.0658
  0
VERTEX
 10
1.41566
 20
-14.4218
  0
SEQEND
  0
POLYLINE
 70
     1
  0
VERTEX
 10
3.9176
 20
25.4203
  0
VERTEX
 10
-1.97056
 20
18.1907
  0
VERTEX
 10
-2.19843
 20
26.08
  0
SEQEND
  0
POLYLINE
 70
     1
  0
VERTEX
 10
11.0801
 20
13.4427
  0
VERTEX
 10
18.3236
 20
8.25329
  0
VERTEX
 10
16.6285
 20
14.8256
  0
SEQEND
  0
POLYLINE
 70
     1
  0
VERTEX
 10
11.0801
 20
13.4427
  0
VERTEX
 10
11.0633
 20
22.3533
  0
VERTEX
 10
15.4286
 20
17.156
  0
SEQEND
  0
POLYLINE
 70
     1
  0
VERTEX
 10
-10.5245
 20
14.48
  0
VERTEX
 10
-1.97056
 20
18.1907
  0
VERTEX
 10
-9.50348
 20
20.5462
  0
SEQEND
  0
POLYLINE
 70
     1
  0
VERTEX
 10
-6.33978
 20
-6.81396
  0
VERTEX
 10
-13.0522
 20
-7.8197
  0
VERTEX
 10
-8.05484
 20
-12.6434
  0
SEQEND
  0
POLYLINE
 70
     1
  0
VERTEX
 10
18.8335
 20
-11.1197
  0
VERTEX
 10
11.458
 20
-11.4243
  0
VERTEX
 10
13.754
 20
-16.5313
  0
SEQEND
  0
POLYLINE
 70
     1
  0
VERTEX
 10
11.458
 20
-11.4243
  0
VERTEX
 10
7.90371
 20
-13.8106
  0
VERTEX
 10
10.1355
 20
-16.4008
  0
SEQEND
  0
POLYLINE
 70
     1
  0
VERTEX
 10
1.40529
 20
-14.4229
  0
VERTEX
 10
-2.0613
 20
-12.4171
  0
VERTEX
 10
-0.106056
 20
-19.6897
  0
SEQEND
  0
POLYLINE
 70
     1
  0
VERTEX
 10
1.41566
 20
-14.4218
  0
VERTEX
 10
3.78118
 20
-13.2776
  0
VERTEX
 10
3.97509
 20
-17.4971
  0
SEQEND
  0
POLYLINE
 70
     1
  0
VERTEX
 10
-2.19843
 20
26.08
  0
VERTEX
 10
3.9176
 20
25.4203
  0
VERTEX
 10
1.76349
 20
30.8483
  0
SEQEND
  0
POLYLINE
 70
     1
  0
VERTEX
 10
15.4286
 20
17.156
  0
VERTEX
 10
11.0633
 20
22.3533
  0
VERTEX
 10
15.9272
 20
25.5853
  0
SEQEND
  0
POLYLINE
 70
     1
  0
VERTEX
 10
-9.50348
 20
20.5462
  0
VERTEX
 10
-10.5245
 20
14.48
  0
VERTEX
 10
-15.1664
 20
18.0234
  0
SEQEND
  0
POLYLINE
 70
     1
  0
VERTEX
 10
-8.05484
 20
-12.6434
  0
VERTEX
 10
-13.0522
 20
-7.8197
  0
VERTEX
 10
-11.9286
 20
-13.5504
  0
SEQEND
  0
POLYLINE
 70
     1
  0
VERTEX
 10
18.8335
 20
-11.1197
  0
VERTEX
 10
13.754
 20
-16.5313
  0
VERTEX
 10
17.2559
 20
-19.4151
  0
SEQEND
  0
POLYLINE
 70
     1
  0
VERTEX
 10
10.1355
 20
-16.4008
  0
VERTEX
 10
7.90371
 20
-13.8106
  0
VERTEX
 10
7.91261
 20
-18.0346
  0
SEQEND
  0
POLYLINE
 70
     1
  0
VERTEX
 10
1.40529
 20
-14.4229
  0
VERTEX
 10
-0.106056
 20
-19.6897
  0
VERTEX
 10
1.78922
 20
-18.4055
  0
SEQEND
  0
POLYLINE
 70
     1
  0
VERTEX
 10
-2.0613
 20
-12.4171
  0
VERTEX
 10
-0.106056
 20
-19.6897
  0
VERTEX
 10
-5.16317
 20
-14.9084
  0
SEQEND
  0
POLYLINE
 70
     1
  0
VERTEX
 10
1.76349
 20
30.8483
  0
VERTEX
 10
-2.19843
 20
26.08
  0
VERTEX
 10
-1.95766
 20
32.9651
  0
SEQEND
  0
POLYLINE
 70
     1
  0
VERTEX
 10
-15.1664
 20
18.0234
  0
VERTEX
 10
-9.50348
 20
20.5462
  0
VERTEX
 10
-16.1965
 20
22.1787
  0
SEQEND
  0
POLYLINE
 70
     1
  0
VERTEX
 10
13.754
 20
-16.5313
  0
VERTEX
 10
17.2559
 20
-19.4151
  0
VERTEX
 10
11.0756
 20
-21.831
  0
SEQEND
  0
POLYLINE
 70
     1
  0
VERTEX
 10
7.91261
 20
-18.0346
  0
VERTEX
 10
10.1355
 20
-16.4008
  0
VERTEX
 10
9.76852
 20
-20.1436
  0
SEQEND
  0
POLYLINE
 70
     1
  0
VERTEX
 10
1.78922
 20
-18.4055
  0
VERTEX
 10
-0.106056
 20
-19.6897
  0
VERTEX
 10
2.01738
 20
-21.2055
  0
SEQEND
  0
POLYLINE
 70
     1
  0
VERTEX
 10
-0.106056
 20
-19.6897
  0
VERTEX
 10
-5.16317
 20
-14.9084
  0
VERTEX
 10
-2.73216
 20
-19.0142
  0
SEQEND
  0
POLYLINE
 70
     1
  0
VERTEX
 10
-1.95766
 20
32.9651
  0
VERTEX
 10
1.76349
 20
30.8483
  0
VERTEX
 10
0.0174
 20
37.2502
  0
SEQEND
  0
POLYLINE
 70
     1
  0
VERTEX
 10
-16.1965
 20
22.1787
  0
VERTEX
 10
-15.1664
 20
18.0234
  0
VERTEX
 10
-18.2715
 20
21.6464
  0
SEQEND
  0
POLYLINE
 70
     1
  0
VERTEX
 10
11.0756
 20
-21.831
  0
VERTEX
 10
13.754
 20
-16.5313
  0
VERTEX
 10
10.1926
 20
-21.3297
  0
SEQEND
  0
POLYLINE
 70
     1
  0
VERTEX
 10
-0.106056
 20
-19.6897
  0
VERTEX
 10
2.01738
 20
-21.2055
  0
VERTEX
 10
1.79908
 20
-22.1971
  0
SEQEND
  0
POLYLINE
 70
     1
  0
VERTEX
 10
-2.73216
 20
-19.0142
  0
VERTEX
 10
-0.106056
 20
-19.6897
  0
VERTEX
 10
-2.06874
 20
-21.3108
  0
SEQEND
  0
POLYLINE
 70
     1
  0
VERTEX
 10
0.0174
 20
37.2502
  0
VERTEX
 10
-1.95766
 20
32.9651
  0
VERTEX
 10
-2.19187
 20
36.6501
  0
SEQEND
  0
POLYLINE
 70
     1
  0
VERTEX
 10
-18.2715
 20
21.6464
  0
VERTEX
 10
-16.1965
 20
22.1787
  0
VERTEX
 10
-19.5863
 20
23.6428
  0
SEQEND
  0
POLYLINE
 70
     1
  0
VERTEX
 10
1.79908
 20
-22.1971
  0
VERTEX
 10
-0.106056
 20
-19.6897
  0
VERTEX
 10
-0.49022
 20
-22.2061
  0
SEQEND
  0
POLYLINE
 70
     1
  0
VERTEX
 10
40.3408
 20
0
  0
VERTEX
 10
45.9402
 20
0
  0
VERTEX
 10
43.637
 20
-3.95595
  0
SEQEND
  0
POLYLINE
 70
     1
  0
VERTEX
 10
45.9402
 20
0
  0
VERTEX
 10
43.637
 20
-3.95595
  0
VERTEX
 10
46.853
 20
-5.90546
  0
SEQEND
  0
POLYLINE
 70
     1
  0
VERTEX
 10
-2.19843
 20
26.08
  0
VERTEX
 10
-4.31444
 20
23.8382
  0
VERTEX
 10
-4.21243
 20
20.3067
  0
VERTEX
 10
-1.97056
 20
18.1907
  0
SEQEND
  0
POLYLINE
 70
     0
  0
VERTEX
 10
-3.28456
 20
23.6427
  0
VERTEX
 10
-3.26675
 20
23.0264
  0
VERTEX
 10
-2.65046
 20
23.0442
  0
VERTEX
 10
-2.66826
 20
23.6605
  0
VERTEX
 10
-3.28456
 20
23.6427
  0
SEQEND
  0
POLYLINE
 70
     0
  0
VERTEX
 10
-2.64156
 20
22.7361
  0
VERTEX
 10
-2.63266
 20
22.4279
  0
VERTEX
 10
-3.24895
 20
22.4101
  0
VERTEX
 10
-3.25785
 20
22.7183
  0
VERTEX
 10
-3.24005
 20
22.102
  0
VERTEX
 10
-3.03462
 20
22.1079
  0
SEQEND
  0
POLYLINE
 70
     1
  0
VERTEX
 10
3.9176
 20
25.4203
  0
VERTEX
 10
6.58737
 20
23.879
  0
VERTEX
 10
7.08517
 20
22.0212
  0
VERTEX
 10
5.5438
 20
19.3515
  0
SEQEND
  0
POLYLINE
 70
     0
  0
VERTEX
 10
6.2463
 20
21.1963
  0
VERTEX
 10
6.08672
 20
21.7918
  0
VERTEX
 10
5.49117
 20
21.6322
  0
VERTEX
 10
5.65075
 20
21.0367
  0
VERTEX
 10
6.2463
 20
21.1963
  0
SEQEND
  0
POLYLINE
 70
     0
  0
VERTEX
 10
5.41138
 20
21.93
  0
VERTEX
 10
5.2518
 20
22.5255
  0
VERTEX
 10
5.54957
 20
22.6053
  0
VERTEX
 10
5.70915
 20
22.0098
  0
VERTEX
 10
6.00693
 20
22.0896
  0
VERTEX
 10
5.84735
 20
22.6851
  0
SEQEND
  0
POLYLINE
 70
     1
  0
VERTEX
 10
10.1355
 20
-16.4008
  0
VERTEX
 10
11.8234
 20
-18.4557
  0
VERTEX
 10
11.8234
 20
-18.4557
  0
VERTEX
 10
9.76852
 20
-20.1436
  0
SEQEND
  0
POLYLINE
 70
     0
  0
VERTEX
 10
10.7165
 20
-19.6832
  0
VERTEX
 10
10.7588
 20
-19.252
  0
VERTEX
 10
10.3277
 20
-19.2098
  0
VERTEX
 10
10.2854
 20
-19.6409
  0
VERTEX
 10
10.7165
 20
-19.6832
  0
SEQEND
  0
POLYLINE
 70
     0
  0
VERTEX
 10
10.3488
 20
-18.9942
  0
VERTEX
 10
10.3911
 20
-18.5631
  0
VERTEX
 10
10.6066
 20
-18.5842
  0
VERTEX
 10
10.5855
 20
-18.7998
  0
VERTEX
 10
10.6066
 20
-18.5842
  0
VERTEX
 10
10.8222
 20
-18.6054
  0
VERTEX
 10
10.7799
 20
-19.0365
  0
SEQEND
  0
POLYLINE
 70
     1
  0
VERTEX
 10
9.76852
 20
-20.1436
  0
VERTEX
 10
7.78607
 20
-20.0171
  0
VERTEX
 10
7.78607
 20
-20.0171
  0
VERTEX
 10
7.91261
 20
-18.0346
  0
SEQEND
  0
POLYLINE
 70
     0
  0
VERTEX
 10
7.6805
 20
-18.7869
  0
VERTEX
 10
7.89428
 20
-19.0298
  0
VERTEX
 10
8.13721
 20
-18.8161
  0
VERTEX
 10
7.92343
 20
-18.5731
  0
VERTEX
 10
7.6805
 20
-18.7869
  0
SEQEND
  0
POLYLINE
 70
     0
  0
VERTEX
 10
8.2441
 20
-18.9375
  0
VERTEX
 10
8.12263
 20
-19.0444
  0
VERTEX
 10
8.33641
 20
-19.2873
  0
VERTEX
 10
8.39714
 20
-19.2339
  0
VERTEX
 10
8.21495
 20
-19.3942
  0
SEQEND
  0
POLYLINE
 70
     1
  0
VERTEX
 10
-2.73216
 20
-19.0142
  0
VERTEX
 10
-3.54874
 20
-20.4942
  0
VERTEX
 10
-3.54874
 20
-20.4942
  0
VERTEX
 10
-2.06874
 20
-21.3108
  0
SEQEND
  0
POLYLINE
 70
     0
  0
VERTEX
 10
-3.18373
 20
-19.509
  0
VERTEX
 10
-3.10731
 20
-19.7736
  0
VERTEX
 10
-2.84277
 20
-19.6972
  0
VERTEX
 10
-2.91919
 20
-19.4326
  0
VERTEX
 10
-3.18373
 20
-19.509
  0
SEQEND
  0
POLYLINE
 70
     0
  0
VERTEX
 10
-2.72815
 20
-20.094
  0
VERTEX
 10
-2.80457
 20
-19.8294
  0
VERTEX
 10
-2.93683
 20
-19.8676
  0
VERTEX
 10
-2.86042
 20
-20.1322
  0
VERTEX
 10
-2.99269
 20
-20.1704
  0
VERTEX
 10
-3.0691
 20
-19.9059
  0
SEQEND
  0
POLYLINE
 70
     1
  0
VERTEX
 10
1.78922
 20
-18.4055
  0
VERTEX
 10
3.30332
 20
-19.6914
  0
VERTEX
 10
3.30332
 20
-19.6914
  0
VERTEX
 10
2.01738
 20
-21.2055
  0
SEQEND
  0
POLYLINE
 70
     0
  0
VERTEX
 10
2.65299
 20
-20.7409
  0
VERTEX
 10
2.6267
 20
-20.4184
  0
VERTEX
 10
2.30417
 20
-20.4447
  0
VERTEX
 10
2.33045
 20
-20.7672
  0
VERTEX
 10
2.65299
 20
-20.7409
  0
SEQEND
  0
POLYLINE
 70
     0
  0
VERTEX
 10
2.29103
 20
-20.2834
  0
VERTEX
 10
2.4523
 20
-20.2703
  0
VERTEX
 10
2.42602
 20
-19.9478
  0
VERTEX
 10
2.34538
 20
-19.9543
  0
VERTEX
 10
2.58728
 20
-19.9346
  0
SEQEND
  0
POLYLINE
 70
     1
  0
VERTEX
 10
1.79908
 20
-22.1971
  0
VERTEX
 10
2.40404
 20
-21.8105
  0
VERTEX
 10
2.40404
 20
-21.8105
  0
VERTEX
 10
2.01738
 20
-21.2055
  0
SEQEND
  0
POLYLINE
 70
     0
  0
VERTEX
 10
2.06798
 20
-22.1041
  0
VERTEX
 10
2.09313
 20
-21.9898
  0
VERTEX
 10
1.9789
 20
-21.9647
  0
VERTEX
 10
1.95376
 20
-22.0789
  0
VERTEX
 10
2.06798
 20
-22.1041
  0
SEQEND
  0
POLYLINE
 70
     0
  0
VERTEX
 10
1.99986
 20
-21.8695
  0
VERTEX
 10
1.99148
 20
-21.9076
  0
VERTEX
 10
2.06762
 20
-21.9244
  0
VERTEX
 10
2.09277
 20
-21.8101
  0
VERTEX
 10
2.13084
 20
-21.8185
  0
VERTEX
 10
2.1057
 20
-21.9327
  0
VERTEX
 10
2.06762
 20
-21.9244
  0
SEQEND
  0
POLYLINE
 70
     1
  0
VERTEX
 10
1.79908
 20
-22.1971
  0
VERTEX
 10
0.658939
 20
-23.3463
  0
VERTEX
 10
0.658939
 20
-23.3463
  0
VERTEX
 10
-0.49022
 20
-22.2061
  0
SEQEND
  0
POLYLINE
 70
     0
  0
VERTEX
 10
-0.152805
 20
-22.7518
  0
VERTEX
 10
0.110896
 20
-22.7508
  0
VERTEX
 10
0.109858
 20
-22.4871
  0
VERTEX
 10
-0.153844
 20
-22.4881
  0
VERTEX
 10
-0.152805
 20
-22.7518
  0
SEQEND
  0
POLYLINE
 70
     0
  0
VERTEX
 10
0.242055
 20
-22.5745
  0
VERTEX
 10
0.241709
 20
-22.4866
  0
VERTEX
 10
0.505411
 20
-22.4855
  0
VERTEX
 10
0.505757
 20
-22.5734
  0
VERTEX
 10
0.38806
 20
-22.6795
  0
VERTEX
 10
0.388406
 20
-22.7674
  0
SEQEND
  0
POLYLINE
 70
     1
  0
VERTEX
 10
12.5456
 20
6.29243
  0
VERTEX
 10
15.3104
 20
4.92875
  0
VERTEX
 10
16.9599
 20
5.48854
  0
VERTEX
 10
18.3236
 20
8.25329
  0
SEQEND
  0
POLYLINE
 70
     0
  0
VERTEX
 10
14.3465
 20
5.68279
  0
VERTEX
 10
14.9303
 20
5.88093
  0
VERTEX
 10
14.7322
 20
6.46478
  0
VERTEX
 10
14.1484
 20
6.26664
  0
VERTEX
 10
14.3465
 20
5.68279
  0
SEQEND
  0
POLYLINE
 70
     0
  0
VERTEX
 10
15.5611
 20
6.42053
  0
VERTEX
 10
15.462
 20
6.71246
  0
VERTEX
 10
15.1701
 20
6.61339
  0
VERTEX
 10
15.2692
 20
6.32146
  0
VERTEX
 10
15.1232
 20
6.27193
  0
VERTEX
 10
15.2223
 20
5.98
  0
VERTEX
 10
15.8061
 20
6.17814
  0
VERTEX
 10
15.7071
 20
6.47007
  0
VERTEX
 10
15.2692
 20
6.32146
  0
SEQEND
  0
POLYLINE
 70
     1
  0
VERTEX
 10
16.6285
 20
14.8256
  0
VERTEX
 10
19.2837
 20
13.2592
  0
VERTEX
 10
19.89
 20
10.9084
  0
VERTEX
 10
18.3236
 20
8.25329
  0
SEQEND
  0
POLYLINE
 70
     0
  0
VERTEX
 10
18.9804
 20
10.3356
  0
VERTEX
 10
18.8264
 20
10.9326
  0
VERTEX
 10
18.2294
 20
10.7787
  0
VERTEX
 10
18.3834
 20
10.1816
  0
VERTEX
 10
18.9804
 20
10.3356
  0
SEQEND
  0
POLYLINE
 70
     0
  0
VERTEX
 10
18.1975
 20
11.7255
  0
VERTEX
 10
17.9984
 20
11.6742
  0
VERTEX
 10
18.1524
 20
11.0772
  0
VERTEX
 10
18.3514
 20
11.1285
  0
VERTEX
 10
18.1975
 20
11.7255
  0
VERTEX
 10
18.5955
 20
11.8282
  0
VERTEX
 10
18.6468
 20
11.6291
  0
SEQEND
  0
POLYLINE
 70
     1
  0
VERTEX
 10
5.5438
 20
19.3515
  0
VERTEX
 10
6.41728
 20
22.3079
  0
VERTEX
 10
8.10685
 20
23.2268
  0
VERTEX
 10
11.0633
 20
22.3533
  0
SEQEND
  0
POLYLINE
 70
     0
  0
VERTEX
 10
9.10529
 20
22.6044
  0
VERTEX
 10
8.56366
 20
22.3098
  0
VERTEX
 10
8.85824
 20
21.7682
  0
VERTEX
 10
9.39987
 20
22.0628
  0
VERTEX
 10
9.10529
 20
22.6044
  0
SEQEND
  0
POLYLINE
 70
     0
  0
VERTEX
 10
8.58742
 20
21.6209
  0
VERTEX
 10
8.04579
 20
21.3263
  0
VERTEX
 10
7.8985
 20
21.5971
  0
VERTEX
 10
8.44013
 20
21.8917
  0
VERTEX
 10
8.29285
 20
22.1625
  0
VERTEX
 10
7.75122
 20
21.868
  0
SEQEND
  0
POLYLINE
 70
     1
  0
VERTEX
 10
-5.45695
 20
4.74797
  0
VERTEX
 10
-8.53258
 20
4.95766
  0
VERTEX
 10
-11.5242
 20
8.38707
  0
VERTEX
 10
-11.3145
 20
11.4627
  0
SEQEND
  0
POLYLINE
 70
     0
  0
SEQEND
  0
POLYLINE
 70
     0
  0
VERTEX
 10
-9.19758
 20
8.21531
  0
VERTEX
 10
-8.99493
 20
7.983
  0
VERTEX
 10
-9.45954
 20
7.5777
  0
VERTEX
 10
-9.6622
 20
7.81
  0
VERTEX
 10
-9.25689
 20
7.34539
  0
VERTEX
 10
-9.10202
 20
7.48049
  0
SEQEND
  0
POLYLINE
 70
     0
  0
VERTEX
 10
-9.05424
 20
7.11308
  0
VERTEX
 10
-8.64893
 20
6.64847
  0
VERTEX
 10
-8.18432
 20
7.05377
  0
VERTEX
 10
-8.58962
 20
7.51839
  0
VERTEX
 10
-9.05424
 20
7.11308
  0
SEQEND
  0
POLYLINE
 70
     1
  0
VERTEX
 10
-7.14101
 20
-1.15215
  0
VERTEX
 10
-10.2182
 20
-1.33717
  0
VERTEX
 10
-13.2373
 20
-4.74249
  0
VERTEX
 10
-13.0522
 20
-7.8197
  0
SEQEND
  0
POLYLINE
 70
     0
  0
SEQEND
  0
POLYLINE
 70
     0
  0
VERTEX
 10
-10.0913
 20
-3.66669
  0
VERTEX
 10
-10.2958
 20
-3.89736
  0
VERTEX
 10
-10.7571
 20
-3.48834
  0
VERTEX
 10
-10.5526
 20
-3.25767
  0
VERTEX
 10
-10.9617
 20
-3.71902
  0
VERTEX
 10
-10.8079
 20
-3.85536
  0
SEQEND
  0
POLYLINE
 70
     0
  0
VERTEX
 10
-11.1662
 20
-3.94969
  0
VERTEX
 10
-11.5752
 20
-4.41104
  0
VERTEX
 10
-11.1138
 20
-4.82006
  0
VERTEX
 10
-10.7048
 20
-4.35871
  0
VERTEX
 10
-11.1662
 20
-3.94969
  0
SEQEND
  0
POLYLINE
 70
     1
  0
VERTEX
 10
-7.14101
 20
-1.15215
  0
VERTEX
 10
-5.33621
 20
1.34708
  0
VERTEX
 10
-2.49923
 20
1.80481
  0
VERTEX
 10
8.88178e-16
 20
-1.77636e-15
  0
SEQEND
  0
POLYLINE
 70
     0
  0
SEQEND
  0
POLYLINE
 70
     0
  0
VERTEX
 10
-3.04775
 20
0.0547295
  0
VERTEX
 10
-3.3521
 20
0.00562639
  0
VERTEX
 10
-3.4503
 20
0.614309
  0
VERTEX
 10
-3.14596
 20
0.663412
  0
VERTEX
 10
-3.75464
 20
0.565206
  0
VERTEX
 10
-3.72191
 20
0.362311
  0
SEQEND
  0
POLYLINE
 70
     0
  0
VERTEX
 10
-3.96078
 20
-0.0925798
  0
VERTEX
 10
-4.26512
 20
-0.141683
  0
VERTEX
 10
-4.36333
 20
0.466999
  0
VERTEX
 10
-4.05898
 20
0.516102
  0
VERTEX
 10
-4.66767
 20
0.417896
  0
VERTEX
 10
-4.63493
 20
0.215002
  0
SEQEND
  0
POLYLINE
 70
     1
  0
VERTEX
 10
0
 20
0
  0
VERTEX
 10
-3.07536
 20
-0.213656
  0
VERTEX
 10
-5.24329
 20
1.67262
  0
VERTEX
 10
-5.45695
 20
4.74797
  0
SEQEND
  0
POLYLINE
 70
     0
  0
SEQEND
  0
POLYLINE
 70
     0
  0
VERTEX
 10
-3.54773
 20
2.3717
  0
VERTEX
 10
-3.31516
 20
2.16934
  0
VERTEX
 10
-3.71986
 20
1.70421
  0
VERTEX
 10
-3.95243
 20
1.90656
  0
VERTEX
 10
-3.4873
 20
1.50186
  0
VERTEX
 10
-3.35239
 20
1.6569
  0
SEQEND
  0
POLYLINE
 70
     0
  0
VERTEX
 10
-2.85002
 20
1.76464
  0
VERTEX
 10
-2.61745
 20
1.56229
  0
VERTEX
 10
-3.02216
 20
1.09715
  0
VERTEX
 10
-3.25473
 20
1.2995
  0
VERTEX
 10
-2.78959
 20
0.894797
  0
VERTEX
 10
-2.65469
 20
1.04984
  0
SEQEND
  0
POLYLINE
 70
     1
  0
VERTEX
 10
12.5456
 20
6.29243
  0
VERTEX
 10
12.9106
 20
3.23134
  0
VERTEX
 10
10.6548
 20
0.364918
  0
VERTEX
 10
7.59367
 20
-3.88578e-16
  0
SEQEND
  0
POLYLINE
 70
     0
  0
SEQEND
  0
POLYLINE
 70
     0
  0
VERTEX
 10
10.1123
 20
2.32807
  0
VERTEX
 10
10.303
 20
2.57032
  0
VERTEX
 10
10.7875
 20
2.18903
  0
VERTEX
 10
10.5968
 20
1.94677
  0
VERTEX
 10
10.9781
 20
2.43128
  0
VERTEX
 10
10.8166
 20
2.55838
  0
SEQEND
  0
POLYLINE
 70
     0
  0
VERTEX
 10
10.6843
 20
3.05484
  0
VERTEX
 10
11.0655
 20
3.53935
  0
VERTEX
 10
11.3078
 20
3.3487
  0
VERTEX
 10
10.9265
 20
2.86419
  0
VERTEX
 10
11.1688
 20
2.67354
  0
VERTEX
 10
11.5501
 20
3.15805
  0
SEQEND
  0
POLYLINE
 70
     1
  0
VERTEX
 10
-18.2715
 20
21.6464
  0
VERTEX
 10
-18.5081
 20
18.5727
  0
VERTEX
 10
-18.2401
 20
18.26
  0
VERTEX
 10
-15.1664
 20
18.0234
  0
SEQEND
  0
POLYLINE
 70
     0
  0
SEQEND
  0
POLYLINE
 70
     0
  0
VERTEX
 10
-17.5885
 20
20.0204
  0
VERTEX
 10
-17.4074
 20
19.8092
  0
VERTEX
 10
-17.8299
 20
19.4471
  0
VERTEX
 10
-18.011
 20
19.6583
  0
VERTEX
 10
-17.6489
 20
19.2358
  0
VERTEX
 10
-17.508
 20
19.3565
  0
SEQEND
  0
POLYLINE
 70
     0
  0
VERTEX
 10
-17.0453
 20
19.3867
  0
VERTEX
 10
-16.6832
 20
18.9642
  0
VERTEX
 10
-16.8945
 20
18.7831
  0
VERTEX
 10
-17.0755
 20
18.9944
  0
VERTEX
 10
-16.8945
 20
18.7831
  0
VERTEX
 10
-17.1057
 20
18.6021
  0
VERTEX
 10
-17.4678
 20
19.0246
  0
SEQEND
  0
POLYLINE
 70
     1
  0
VERTEX
 10
-9.50348
 20
20.5462
  0
VERTEX
 10
-6.77241
 20
21.9762
  0
VERTEX
 10
-3.4005
 20
20.9218
  0
VERTEX
 10
-1.97056
 20
18.1907
  0
SEQEND
  0
POLYLINE
 70
     0
  0
VERTEX
 10
-3.92087
 20
20.0118
  0
VERTEX
 10
-4.50932
 20
20.1958
  0
VERTEX
 10
-4.69333
 20
19.6073
  0
VERTEX
 10
-4.10488
 20
19.4233
  0
VERTEX
 10
-3.92087
 20
20.0118
  0
SEQEND
  0
POLYLINE
 70
     0
  0
VERTEX
 10
-4.98756
 20
19.6994
  0
VERTEX
 10
-5.28179
 20
19.7914
  0
VERTEX
 10
-5.09778
 20
20.3798
  0
VERTEX
 10
-4.80355
 20
20.2878
  0
VERTEX
 10
-5.39201
 20
20.4718
  0
VERTEX
 10
-5.45334
 20
20.2757
  0
SEQEND
  0
POLYLINE
 70
     1
  0
VERTEX
 10
15.3699
 20
-1.90949
  0
VERTEX
 10
16.5608
 20
-4.75295
  0
VERTEX
 10
15.9005
 20
-6.36486
  0
VERTEX
 10
13.0571
 20
-7.55575
  0
SEQEND
  0
POLYLINE
 70
     0
  0
VERTEX
 10
14.699
 20
-6.59718
  0
VERTEX
 10
14.9327
 20
-6.02664
  0
VERTEX
 10
14.3622
 20
-5.79293
  0
VERTEX
 10
14.1285
 20
-6.36347
  0
VERTEX
 10
14.699
 20
-6.59718
  0
SEQEND
  0
POLYLINE
 70
     0
  0
VERTEX
 10
14.9396
 20
-5.19661
  0
VERTEX
 10
14.6543
 20
-5.07975
  0
VERTEX
 10
14.5375
 20
-5.36502
  0
VERTEX
 10
14.8227
 20
-5.48188
  0
VERTEX
 10
14.7643
 20
-5.62451
  0
VERTEX
 10
15.0496
 20
-5.74137
  0
VERTEX
 10
15.2833
 20
-5.17083
  0
VERTEX
 10
14.998
 20
-5.05397
  0
VERTEX
 10
14.8227
 20
-5.48188
  0
SEQEND
  0
POLYLINE
 70
     1
  0
VERTEX
 10
7.59367
 20
1.77636e-15
  0
VERTEX
 10
10.2305
 20
1.59713
  0
VERTEX
 10
13.7728
 20
0.727292
  0
VERTEX
 10
15.3699
 20
-1.90949
  0
SEQEND
  0
POLYLINE
 70
     0
  0
SEQEND
  0
POLYLINE
 70
     0
  0
VERTEX
 10
12.2092
 20
-0.577855
  0
VERTEX
 10
11.9098
 20
-0.50434
  0
VERTEX
 10
12.0569
 20
0.0944257
  0
VERTEX
 10
12.3563
 20
0.0209112
  0
VERTEX
 10
11.7575
 20
0.16794
  0
VERTEX
 10
11.7085
 20
-0.0316484
  0
SEQEND
  0
POLYLINE
 70
     0
  0
VERTEX
 10
11.3111
 20
-0.357311
  0
VERTEX
 10
10.7123
 20
-0.210282
  0
VERTEX
 10
10.7858
 20
0.0891009
  0
VERTEX
 10
11.3846
 20
-0.0579282
  0
VERTEX
 10
11.4581
 20
0.241455
  0
VERTEX
 10
10.8593
 20
0.388484
  0
SEQEND
  0
POLYLINE
 70
     1
  0
VERTEX
 10
-18.2715
 20
21.6464
  0
VERTEX
 10
-19.9271
 20
21.9872
  0
VERTEX
 10
-19.9271
 20
21.9872
  0
VERTEX
 10
-19.5863
 20
23.6428
  0
SEQEND
  0
POLYLINE
 70
     0
  0
VERTEX
 10
-19.8708
 20
23.0363
  0
VERTEX
 10
-19.7193
 20
22.8063
  0
VERTEX
 10
-19.4894
 20
22.9577
  0
VERTEX
 10
-19.6408
 20
23.1877
  0
VERTEX
 10
-19.8708
 20
23.0363
  0
SEQEND
  0
POLYLINE
 70
     0
  0
VERTEX
 10
-19.2622
 20
22.6128
  0
VERTEX
 10
-19.4136
 20
22.8428
  0
VERTEX
 10
-19.5286
 20
22.767
  0
VERTEX
 10
-19.3772
 20
22.5371
  0
VERTEX
 10
-19.4922
 20
22.4613
  0
VERTEX
 10
-19.6436
 20
22.6913
  0
SEQEND
  0
POLYLINE
 70
     1
  0
VERTEX
 10
-19.5863
 20
23.6428
  0
VERTEX
 10
-17.1594
 20
24.6056
  0
VERTEX
 10
-17.1594
 20
24.6056
  0
VERTEX
 10
-16.1965
 20
22.1787
  0
SEQEND
  0
POLYLINE
 70
     0
  0
SEQEND
  0
POLYLINE
 70
     0
  0
VERTEX
 10
-17.0975
 20
23.0655
  0
VERTEX
 10
-17.2927
 20
23.1498
  0
VERTEX
 10
-17.1241
 20
23.5403
  0
VERTEX
 10
-16.9288
 20
23.456
  0
VERTEX
 10
-17.3193
 20
23.6246
  0
VERTEX
 10
-17.3755
 20
23.4945
  0
SEQEND
  0
POLYLINE
 70
     0
  0
VERTEX
 10
-17.6832
 20
23.3185
  0
VERTEX
 10
-17.5988
 20
23.5137
  0
VERTEX
 10
-17.9893
 20
23.6824
  0
VERTEX
 10
-18.0315
 20
23.5848
  0
VERTEX
 10
-17.905
 20
23.8776
  0
SEQEND
  0
POLYLINE
 70
     1
  0
VERTEX
 10
3.97509
 20
-17.4971
  0
VERTEX
 10
5.98791
 20
-15.2904
  0
VERTEX
 10
5.98791
 20
-15.2904
  0
VERTEX
 10
3.78118
 20
-13.2776
  0
SEQEND
  0
POLYLINE
 70
     0
  0
SEQEND
  0
POLYLINE
 70
     0
  0
VERTEX
 10
4.43533
 20
-16.1261
  0
VERTEX
 10
4.42417
 20
-15.8831
  0
VERTEX
 10
4.91021
 20
-15.8608
  0
VERTEX
 10
4.92138
 20
-16.1038
  0
VERTEX
 10
4.89904
 20
-15.6178
  0
VERTEX
 10
4.73703
 20
-15.6252
  0
SEQEND
  0
POLYLINE
 70
     0
  0
VERTEX
 10
4.37949
 20
-14.911
  0
VERTEX
 10
4.40183
 20
-15.3971
  0
VERTEX
 10
4.64485
 20
-15.3859
  0
VERTEX
 10
4.62252
 20
-14.8999
  0
VERTEX
 10
4.86554
 20
-14.8887
  0
VERTEX
 10
4.88787
 20
-15.3747
  0
SEQEND
  0
POLYLINE
 70
     1
  0
VERTEX
 10
-2.73216
 20
-19.0142
  0
VERTEX
 10
-5.71847
 20
-18.2491
  0
VERTEX
 10
-5.9283
 20
-17.8947
  0
VERTEX
 10
-5.16317
 20
-14.9084
  0
SEQEND
  0
POLYLINE
 70
     0
  0
SEQEND
  0
POLYLINE
 70
     0
  0
VERTEX
 10
-4.77194
 20
-16.628
  0
VERTEX
 10
-4.6302
 20
-16.8674
  0
VERTEX
 10
-5.109
 20
-17.1509
  0
VERTEX
 10
-5.25075
 20
-16.9115
  0
VERTEX
 10
-4.96726
 20
-17.3903
  0
VERTEX
 10
-4.80765
 20
-17.2958
  0
SEQEND
  0
POLYLINE
 70
     0
  0
VERTEX
 10
-4.3467
 20
-17.3462
  0
VERTEX
 10
-4.06321
 20
-17.825
  0
VERTEX
 10
-4.30261
 20
-17.9668
  0
VERTEX
 10
-4.44436
 20
-17.7274
  0
VERTEX
 10
-4.30261
 20
-17.9668
  0
VERTEX
 10
-4.54201
 20
-18.1085
  0
VERTEX
 10
-4.82551
 20
-17.6297
  0
SEQEND
  0
POLYLINE
 70
     1
  0
VERTEX
 10
-2.0613
 20
-12.4171
  0
VERTEX
 10
-4.85789
 20
-12.1118
  0
VERTEX
 10
-4.85789
 20
-12.1118
  0
VERTEX
 10
-5.16317
 20
-14.9084
  0
SEQEND
  0
POLYLINE
 70
     0
  0
SEQEND
  0
POLYLINE
 70
     0
  0
VERTEX
 10
-3.35979
 20
-12.8285
  0
VERTEX
 10
-3.53844
 20
-12.972
  0
VERTEX
 10
-3.82541
 20
-12.6147
  0
VERTEX
 10
-3.64676
 20
-12.4712
  0
VERTEX
 10
-4.00406
 20
-12.7582
  0
VERTEX
 10
-3.90841
 20
-12.8773
  0
SEQEND
  0
POLYLINE
 70
     0
  0
VERTEX
 10
-4.01484
 20
-13.3546
  0
VERTEX
 10
-3.89574
 20
-13.259
  0
VERTEX
 10
-4.08706
 20
-13.0208
  0
VERTEX
 10
-4.44436
 20
-13.3078
  0
VERTEX
 10
-4.54001
 20
-13.1887
  0
VERTEX
 10
-4.18271
 20
-12.9017
  0
VERTEX
 10
-4.08706
 20
-13.0208
  0
SEQEND
  0
POLYLINE
 70
     1
  0
VERTEX
 10
-6.33978
 20
-6.81396
  0
VERTEX
 10
-7.00681
 20
-9.82369
  0
VERTEX
 10
-6.08429
 20
-11.2716
  0
VERTEX
 10
-3.07455
 20
-11.9386
  0
SEQEND
  0
POLYLINE
 70
     0
  0
SEQEND
  0
POLYLINE
 70
     0
  0
VERTEX
 10
-5.49345
 20
-9.1462
  0
VERTEX
 10
-5.3278
 20
-9.40618
  0
VERTEX
 10
-5.84777
 20
-9.73749
  0
VERTEX
 10
-6.01342
 20
-9.47751
  0
VERTEX
 10
-5.68212
 20
-9.99748
  0
VERTEX
 10
-5.50879
 20
-9.88704
  0
SEQEND
  0
POLYLINE
 70
     0
  0
VERTEX
 10
-5.16981
 20
-10.0366
  0
VERTEX
 10
-4.99649
 20
-9.92616
  0
VERTEX
 10
-4.66518
 20
-10.4461
  0
VERTEX
 10
-4.8385
 20
-10.5566
  0
VERTEX
 10
-5.19521
 20
-10.4564
  0
VERTEX
 10
-5.36853
 20
-10.5668
  0
SEQEND
  0
POLYLINE
 70
     1
  0
VERTEX
 10
3.78118
 20
-13.2776
  0
VERTEX
 10
6.81896
 20
-12.7528
  0
VERTEX
 10
6.87199
 20
-12.6777
  0
VERTEX
 10
6.34725
 20
-9.6399
  0
SEQEND
  0
POLYLINE
 70
     0
  0
SEQEND
  0
POLYLINE
 70
     0
  0
VERTEX
 10
5.07362
 20
-12.3813
  0
VERTEX
 10
5.22598
 20
-12.1653
  0
VERTEX
 10
5.65794
 20
-12.47
  0
VERTEX
 10
5.50558
 20
-12.686
  0
VERTEX
 10
5.81029
 20
-12.2541
  0
VERTEX
 10
5.66631
 20
-12.1525
  0
SEQEND
  0
POLYLINE
 70
     0
  0
VERTEX
 10
5.9752
 20
-11.5618
  0
VERTEX
 10
5.75922
 20
-11.4094
  0
VERTEX
 10
5.60687
 20
-11.6254
  0
VERTEX
 10
5.82285
 20
-11.7777
  0
VERTEX
 10
5.74667
 20
-11.8857
  0
VERTEX
 10
5.96265
 20
-12.0381
  0
VERTEX
 10
6.26736
 20
-11.6061
  0
VERTEX
 10
6.05138
 20
-11.4538
  0
VERTEX
 10
5.82285
 20
-11.7777
  0
SEQEND
  0
POLYLINE
 70
     1
  0
VERTEX
 10
18.8335
 20
-11.1197
  0
VERTEX
 10
18.1229
 20
-8.11994
  0
VERTEX
 10
16.0568
 20
-6.84519
  0
VERTEX
 10
13.0571
 20
-7.55575
  0
SEQEND
  0
POLYLINE
 70
     0
  0
VERTEX
 10
17.8641
 20
-9.16323
  0
VERTEX
 10
17.3394
 20
-8.83949
  0
VERTEX
 10
17.0156
 20
-9.36421
  0
VERTEX
 10
17.5404
 20
-9.68795
  0
VERTEX
 10
17.8641
 20
-9.16323
  0
SEQEND
  0
POLYLINE
 70
     0
  0
VERTEX
 10
16.3365
 20
-8.70369
  0
VERTEX
 10
16.2286
 20
-8.87859
  0
VERTEX
 10
16.7533
 20
-9.20234
  0
VERTEX
 10
16.8612
 20
-9.02743
  0
VERTEX
 10
16.3365
 20
-8.70369
  0
VERTEX
 10
16.5523
 20
-8.35388
  0
VERTEX
 10
16.7272
 20
-8.46179
  0
SEQEND
  0
POLYLINE
 70
     1
  0
VERTEX
 10
6.34725
 20
-9.6399
  0
VERTEX
 10
5.06713
 20
-12.4443
  0
VERTEX
 10
5.09929
 20
-12.5305
  0
VERTEX
 10
7.90371
 20
-13.8106
  0
SEQEND
  0
POLYLINE
 70
     0
  0
SEQEND
  0
POLYLINE
 70
     0
  0
VERTEX
 10
6.35836
 20
-11.2127
  0
VERTEX
 10
6.45077
 20
-11.4603
  0
VERTEX
 10
5.95551
 20
-11.6451
  0
VERTEX
 10
5.8631
 20
-11.3975
  0
VERTEX
 10
6.04793
 20
-11.8927
  0
VERTEX
 10
6.21301
 20
-11.8311
  0
SEQEND
  0
POLYLINE
 70
     0
  0
VERTEX
 10
6.52658
 20
-12.4194
  0
VERTEX
 10
6.77421
 20
-12.327
  0
VERTEX
 10
6.6818
 20
-12.0794
  0
VERTEX
 10
6.43417
 20
-12.1718
  0
VERTEX
 10
6.38797
 20
-12.048
  0
VERTEX
 10
6.14034
 20
-12.1404
  0
VERTEX
 10
6.32516
 20
-12.6356
  0
VERTEX
 10
6.57279
 20
-12.5432
  0
VERTEX
 10
6.43417
 20
-12.1718
  0
SEQEND
  0
POLYLINE
 70
     1
  0
VERTEX
 10
-8.05484
 20
-12.6434
  0
VERTEX
 10
-5.34837
 20
-11.1674
  0
VERTEX
 10
-4.86381
 20
-9.52043
  0
VERTEX
 10
-6.33978
 20
-6.81396
  0
SEQEND
  0
POLYLINE
 70
     0
  0
SEQEND
  0
POLYLINE
 70
     0
  0
VERTEX
 10
-6.85378
 20
-10.4724
  0
VERTEX
 10
-6.76677
 20
-10.1767
  0
VERTEX
 10
-6.17529
 20
-10.3507
  0
VERTEX
 10
-6.2623
 20
-10.6464
  0
VERTEX
 10
-6.08828
 20
-10.055
  0
VERTEX
 10
-6.28544
 20
-9.99695
  0
SEQEND
  0
POLYLINE
 70
     0
  0
VERTEX
 10
-6.39559
 20
-9.6432
  0
VERTEX
 10
-6.59275
 20
-9.58519
  0
VERTEX
 10
-6.41873
 20
-8.99371
  0
VERTEX
 10
-6.22157
 20
-9.05172
  0
VERTEX
 10
-6.06255
 20
-9.38636
  0
VERTEX
 10
-5.86539
 20
-9.44437
  0
SEQEND
  0
POLYLINE
 70
     1
  0
VERTEX
 10
-11.9286
 20
-13.5504
  0
VERTEX
 10
-14.4871
 20
-11.8307
  0
VERTEX
 10
-14.7719
 20
-10.3783
  0
VERTEX
 10
-13.0522
 20
-7.8197
  0
SEQEND
  0
POLYLINE
 70
     0
  0
SEQEND
  0
POLYLINE
 70
     0
  0
VERTEX
 10
-13.1384
 20
-10.1838
  0
VERTEX
 10
-13.0791
 20
-10.4863
  0
VERTEX
 10
-13.6841
 20
-10.605
  0
VERTEX
 10
-13.7435
 20
-10.3024
  0
VERTEX
 10
-13.6248
 20
-10.9075
  0
VERTEX
 10
-13.4232
 20
-10.8679
  0
SEQEND
  0
POLYLINE
 70
     0
  0
VERTEX
 10
-13.0435
 20
-11.7359
  0
VERTEX
 10
-12.8418
 20
-11.6964
  0
VERTEX
 10
-12.9605
 20
-11.0914
  0
VERTEX
 10
-13.1622
 20
-11.1309
  0
VERTEX
 10
-13.0435
 20
-11.7359
  0
VERTEX
 10
-13.4469
 20
-11.815
  0
VERTEX
 10
-13.4864
 20
-11.6133
  0
SEQEND
  0
POLYLINE
 70
     1
  0
VERTEX
 10
-8.05484
 20
-12.6434
  0
VERTEX
 10
-9.53821
 20
-15.0337
  0
VERTEX
 10
-9.53821
 20
-15.0337
  0
VERTEX
 10
-11.9286
 20
-13.5504
  0
SEQEND
  0
POLYLINE
 70
     0
  0
SEQEND
  0
POLYLINE
 70
     0
  0
VERTEX
 10
-10.5797
 20
-13.7402
  0
VERTEX
 10
-10.3566
 20
-13.6879
  0
VERTEX
 10
-10.2521
 20
-14.1341
  0
VERTEX
 10
-10.4752
 20
-14.1864
  0
VERTEX
 10
-10.029
 20
-14.0819
  0
VERTEX
 10
-10.0639
 20
-13.9332
  0
SEQEND
  0
POLYLINE
 70
     0
  0
VERTEX
 10
-9.76167
 20
-13.5486
  0
VERTEX
 10
-9.91041
 20
-13.5835
  0
VERTEX
 10
-9.84076
 20
-13.8809
  0
VERTEX
 10
-9.39455
 20
-13.7765
  0
VERTEX
 10
-9.35973
 20
-13.9252
  0
VERTEX
 10
-9.80593
 20
-14.0297
  0
VERTEX
 10
-9.84076
 20
-13.8809
  0
SEQEND
  0
POLYLINE
 70
     1
  0
VERTEX
 10
-15.1664
 20
18.0234
  0
VERTEX
 10
-14.7563
 20
14.968
  0
VERTEX
 10
-13.5798
 20
14.07
  0
VERTEX
 10
-10.5245
 20
14.48
  0
SEQEND
  0
POLYLINE
 70
     0
  0
SEQEND
  0
POLYLINE
 70
     0
  0
VERTEX
 10
-13.6629
 20
16.197
  0
VERTEX
 10
-13.4178
 20
16.0099
  0
VERTEX
 10
-13.7919
 20
15.5198
  0
VERTEX
 10
-14.037
 20
15.7069
  0
VERTEX
 10
-13.5469
 20
15.3328
  0
VERTEX
 10
-13.4222
 20
15.4962
  0
SEQEND
  0
POLYLINE
 70
     0
  0
VERTEX
 10
-12.5623
 20
15.0984
  0
VERTEX
 10
-12.4376
 20
15.2617
  0
VERTEX
 10
-12.9277
 20
15.6358
  0
VERTEX
 10
-13.0524
 20
15.4725
  0
VERTEX
 10
-12.5623
 20
15.0984
  0
VERTEX
 10
-12.8117
 20
14.7716
  0
VERTEX
 10
-12.9751
 20
14.8963
  0
SEQEND
  0
POLYLINE
 70
     1
  0
VERTEX
 10
-16.1965
 20
22.1787
  0
VERTEX
 10
-13.5622
 20
23.7799
  0
VERTEX
 10
-11.1047
 20
23.1805
  0
VERTEX
 10
-9.50348
 20
20.5462
  0
SEQEND
  0
POLYLINE
 70
     0
  0
SEQEND
  0
POLYLINE
 70
     0
  0
VERTEX
 10
-12.1232
 20
21.7405
  0
VERTEX
 10
-12.7222
 20
21.8866
  0
VERTEX
 10
-12.6491
 20
22.1861
  0
VERTEX
 10
-12.0501
 20
22.04
  0
VERTEX
 10
-11.9771
 20
22.3395
  0
VERTEX
 10
-12.5761
 20
22.4856
  0
SEQEND
  0
POLYLINE
 70
     0
  0
VERTEX
 10
-12.8756
 20
22.5586
  0
VERTEX
 10
-13.4746
 20
22.7047
  0
VERTEX
 10
-13.6207
 20
22.1057
  0
VERTEX
 10
-13.0217
 20
21.9596
  0
VERTEX
 10
-12.8756
 20
22.5586
  0
SEQEND
  0
POLYLINE
 70
     1
  0
VERTEX
 10
15.4286
 20
17.156
  0
VERTEX
 10
17.7334
 20
19.2033
  0
VERTEX
 10
17.9745
 20
23.2806
  0
VERTEX
 10
15.9272
 20
25.5853
  0
SEQEND
  0
POLYLINE
 70
     0
  0
SEQEND
  0
POLYLINE
 70
     0
  0
VERTEX
 10
16.18
 20
20.7233
  0
VERTEX
 10
16.2164
 20
21.3388
  0
VERTEX
 10
16.5242
 20
21.3206
  0
VERTEX
 10
16.4878
 20
20.7051
  0
VERTEX
 10
16.7955
 20
20.6869
  0
VERTEX
 10
16.8319
 20
21.3024
  0
SEQEND
  0
POLYLINE
 70
     0
  0
VERTEX
 10
16.2346
 20
21.6465
  0
VERTEX
 10
16.2528
 20
21.9543
  0
VERTEX
 10
16.8683
 20
21.9179
  0
VERTEX
 10
16.8501
 20
21.6101
  0
VERTEX
 10
16.8865
 20
22.2256
  0
VERTEX
 10
16.6814
 20
22.2377
  0
SEQEND
  0
POLYLINE
 70
     1
  0
VERTEX
 10
15.9272
 20
25.5853
  0
VERTEX
 10
12.9052
 20
26.1945
  0
VERTEX
 10
11.6724
 20
25.3753
  0
VERTEX
 10
11.0633
 20
22.3533
  0
SEQEND
  0
POLYLINE
 70
     0
  0
SEQEND
  0
POLYLINE
 70
     0
  0
VERTEX
 10
13.7102
 20
24.7599
  0
VERTEX
 10
13.1966
 20
24.4186
  0
VERTEX
 10
13.026
 20
24.6754
  0
VERTEX
 10
13.5396
 20
25.0166
  0
VERTEX
 10
13.3689
 20
25.2734
  0
VERTEX
 10
12.8554
 20
24.9322
  0
SEQEND
  0
POLYLINE
 70
     0
  0
VERTEX
 10
12.9399
 20
24.248
  0
VERTEX
 10
12.4264
 20
23.9068
  0
VERTEX
 10
12.2558
 20
24.1636
  0
VERTEX
 10
12.7693
 20
24.5048
  0
VERTEX
 10
12.5987
 20
24.7615
  0
VERTEX
 10
12.0851
 20
24.4203
  0
SEQEND
  0
POLYLINE
 70
     1
  0
VERTEX
 10
18.8335
 20
-11.1197
  0
VERTEX
 10
20.5677
 20
-13.6684
  0
VERTEX
 10
19.8046
 20
-17.6809
  0
VERTEX
 10
17.2559
 20
-19.4151
  0
SEQEND
  0
POLYLINE
 70
     0
  0
SEQEND
  0
POLYLINE
 70
     0
  0
VERTEX
 10
18.4595
 20
-15.9739
  0
VERTEX
 10
18.5747
 20
-15.3682
  0
VERTEX
 10
18.8775
 20
-15.4258
  0
VERTEX
 10
18.7623
 20
-16.0315
  0
VERTEX
 10
19.0652
 20
-16.0891
  0
VERTEX
 10
19.1804
 20
-15.4834
  0
SEQEND
  0
POLYLINE
 70
     0
  0
VERTEX
 10
18.6323
 20
-15.0653
  0
VERTEX
 10
18.6899
 20
-14.7625
  0
VERTEX
 10
19.2956
 20
-14.8777
  0
VERTEX
 10
19.238
 20
-15.1805
  0
VERTEX
 10
19.3532
 20
-14.5748
  0
VERTEX
 10
19.1513
 20
-14.5364
  0
SEQEND
  0
POLYLINE
 70
     1
  0
VERTEX
 10
1.76349
 20
30.8483
  0
VERTEX
 10
4.59369
 20
29.6263
  0
VERTEX
 10
5.13965
 20
28.2505
  0
VERTEX
 10
3.9176
 20
25.4203
  0
SEQEND
  0
POLYLINE
 70
     0
  0
SEQEND
  0
POLYLINE
 70
     0
  0
VERTEX
 10
3.56941
 20
27.7603
  0
VERTEX
 10
3.34199
 20
28.3333
  0
VERTEX
 10
3.62852
 20
28.447
  0
VERTEX
 10
3.85595
 20
27.874
  0
VERTEX
 10
4.14249
 20
27.9877
  0
VERTEX
 10
3.91506
 20
28.5608
  0
SEQEND
  0
POLYLINE
 70
     0
  0
VERTEX
 10
3.22827
 20
28.6199
  0
VERTEX
 10
3.00084
 20
29.1929
  0
VERTEX
 10
3.28738
 20
29.3067
  0
VERTEX
 10
3.51481
 20
28.7336
  0
VERTEX
 10
3.80135
 20
28.8473
  0
VERTEX
 10
3.57392
 20
29.4204
  0
SEQEND
  0
POLYLINE
 70
     1
  0
VERTEX
 10
-1.95766
 20
32.9651
  0
VERTEX
 10
-4.21236
 20
30.8627
  0
VERTEX
 10
-4.30076
 20
28.3347
  0
VERTEX
 10
-2.19843
 20
26.08
  0
SEQEND
  0
POLYLINE
 70
     0
  0
SEQEND
  0
POLYLINE
 70
     0
  0
VERTEX
 10
-2.59565
 20
30.1576
  0
VERTEX
 10
-2.6172
 20
29.5414
  0
VERTEX
 10
-2.92529
 20
29.5522
  0
VERTEX
 10
-2.90374
 20
30.1683
  0
VERTEX
 10
-3.21183
 20
30.1791
  0
VERTEX
 10
-3.23338
 20
29.5629
  0
SEQEND
  0
POLYLINE
 70
     0
  0
VERTEX
 10
-3.24415
 20
29.2549
  0
VERTEX
 10
-3.2657
 20
28.6387
  0
VERTEX
 10
-2.64952
 20
28.6171
  0
VERTEX
 10
-2.62797
 20
29.2333
  0
VERTEX
 10
-3.24415
 20
29.2549
  0
SEQEND
  0
POLYLINE
 70
     1
  0
VERTEX
 10
0.0174
 20
37.2502
  0
VERTEX
 10
2.69402
 20
35.7208
  0
VERTEX
 10
3.29292
 20
33.5249
  0
VERTEX
 10
1.76349
 20
30.8483
  0
SEQEND
  0
POLYLINE
 70
     0
  0
SEQEND
  0
POLYLINE
 70
     0
  0
VERTEX
 10
1.57315
 20
33.5964
  0
VERTEX
 10
1.41092
 20
34.1912
  0
VERTEX
 10
1.70833
 20
34.2723
  0
VERTEX
 10
1.87057
 20
33.6775
  0
VERTEX
 10
2.16798
 20
33.7586
  0
VERTEX
 10
2.00574
 20
34.3534
  0
SEQEND
  0
POLYLINE
 70
     0
  0
VERTEX
 10
1.3298
 20
34.4886
  0
VERTEX
 10
1.16756
 20
35.0834
  0
VERTEX
 10
1.46497
 20
35.1646
  0
VERTEX
 10
1.54609
 20
34.8672
  0
VERTEX
 10
1.46497
 20
35.1646
  0
VERTEX
 10
1.76239
 20
35.2457
  0
VERTEX
 10
1.92462
 20
34.6509
  0
SEQEND
  0
POLYLINE
 70
     1
  0
VERTEX
 10
0.0174
 20
37.2502
  0
VERTEX
 10
-1.38728
 20
38.0548
  0
VERTEX
 10
-1.38728
 20
38.0548
  0
VERTEX
 10
-2.19187
 20
36.6501
  0
SEQEND
  0
POLYLINE
 70
     0
  0
VERTEX
 10
-0.449522
 20
37.6902
  0
VERTEX
 10
-0.704005
 20
37.6211
  0
VERTEX
 10
-0.634881
 20
37.3666
  0
VERTEX
 10
-0.380398
 20
37.4357
  0
VERTEX
 10
-0.449522
 20
37.6902
  0
SEQEND
  0
POLYLINE
 70
     0
  0
VERTEX
 10
-0.785164
 20
37.4168
  0
VERTEX
 10
-0.762122
 20
37.332
  0
VERTEX
 10
-1.01661
 20
37.2629
  0
VERTEX
 10
-1.03965
 20
37.3477
  0
VERTEX
 10
-0.953355
 20
37.4806
  0
VERTEX
 10
-0.976396
 20
37.5654
  0
SEQEND
  0
POLYLINE
 70
     1
  0
VERTEX
 10
-2.19187
 20
36.6501
  0
VERTEX
 10
-3.91728
 20
34.6905
  0
VERTEX
 10
-3.91728
 20
34.6905
  0
VERTEX
 10
-1.95766
 20
32.9651
  0
SEQEND
  0
POLYLINE
 70
     0
  0
SEQEND
  0
POLYLINE
 70
     0
  0
VERTEX
 10
-2.5731
 20
35.4447
  0
VERTEX
 10
-2.55961
 20
35.2325
  0
VERTEX
 10
-2.98409
 20
35.2055
  0
VERTEX
 10
-2.99758
 20
35.4178
  0
VERTEX
 10
-2.9706
 20
34.9933
  0
VERTEX
 10
-2.82911
 20
35.0023
  0
SEQEND
  0
POLYLINE
 70
     0
  0
VERTEX
 10
-2.53264
 20
34.808
  0
VERTEX
 10
-2.74487
 20
34.7945
  0
VERTEX
 10
-2.71789
 20
34.3701
  0
VERTEX
 10
-2.61178
 20
34.3768
  0
VERTEX
 10
-2.93013
 20
34.3566
  0
SEQEND
  0
POLYLINE
 70
     1
  0
VERTEX
 10
11.0756
 20
-21.831
  0
VERTEX
 10
10.3834
 20
-22.0218
  0
VERTEX
 10
10.3834
 20
-22.0218
  0
VERTEX
 10
10.1926
 20
-21.3297
  0
SEQEND
  0
POLYLINE
 70
     0
  0
VERTEX
 10
10.2021
 20
-21.614
  0
VERTEX
 10
10.3038
 20
-21.6718
  0
VERTEX
 10
10.3616
 20
-21.5701
  0
VERTEX
 10
10.2599
 20
-21.5123
  0
VERTEX
 10
10.2021
 20
-21.614
  0
SEQEND
  0
POLYLINE
 70
     0
  0
VERTEX
 10
10.4463
 20
-21.6182
  0
VERTEX
 10
10.4124
 20
-21.5989
  0
VERTEX
 10
10.3739
 20
-21.6668
  0
VERTEX
 10
10.4756
 20
-21.7245
  0
VERTEX
 10
10.4564
 20
-21.7584
  0
VERTEX
 10
10.3547
 20
-21.7007
  0
VERTEX
 10
10.3739
 20
-21.6668
  0
SEQEND
  0
POLYLINE
 70
     1
  0
VERTEX
 10
10.1926
 20
-21.3297
  0
VERTEX
 10
9.96698
 20
-19.8049
  0
VERTEX
 10
12.2292
 20
-16.7569
  0
VERTEX
 10
13.754
 20
-16.5313
  0
SEQEND
  0
POLYLINE
 70
     0
  0
SEQEND
  0
POLYLINE
 70
     0
  0
VERTEX
 10
11.9404
 20
-18.5222
  0
VERTEX
 10
11.7567
 20
-18.7697
  0
VERTEX
 10
11.6329
 20
-18.6779
  0
VERTEX
 10
11.8167
 20
-18.4303
  0
VERTEX
 10
11.6929
 20
-18.3385
  0
VERTEX
 10
11.5092
 20
-18.586
  0
SEQEND
  0
POLYLINE
 70
     0
  0
VERTEX
 10
11.6648
 20
-18.8935
  0
VERTEX
 10
11.5411
 20
-18.8016
  0
VERTEX
 10
11.3573
 20
-19.0492
  0
VERTEX
 10
11.4192
 20
-19.0951
  0
VERTEX
 10
11.2336
 20
-18.9573
  0
SEQEND
  0
POLYLINE
 70
     1
  0
VERTEX
 10
11.0756
 20
-21.831
  0
VERTEX
 10
13.8994
 20
-23.0676
  0
VERTEX
 10
16.0192
 20
-22.239
  0
VERTEX
 10
17.2559
 20
-19.4151
  0
SEQEND
  0
POLYLINE
 70
     0
  0
SEQEND
  0
POLYLINE
 70
     0
  0
VERTEX
 10
13.7879
 20
-21.35
  0
VERTEX
 10
14.3621
 20
-21.1255
  0
VERTEX
 10
14.4744
 20
-21.4126
  0
VERTEX
 10
13.9001
 20
-21.6371
  0
VERTEX
 10
14.0124
 20
-21.9242
  0
VERTEX
 10
14.5866
 20
-21.6997
  0
SEQEND
  0
POLYLINE
 70
     0
  0
VERTEX
 10
14.6492
 20
-21.0133
  0
VERTEX
 10
15.2235
 20
-20.7888
  0
VERTEX
 10
15.3357
 20
-21.0759
  0
VERTEX
 10
15.0486
 20
-21.1881
  0
VERTEX
 10
15.3357
 20
-21.0759
  0
VERTEX
 10
15.448
 20
-21.363
  0
VERTEX
 10
14.8737
 20
-21.5875
  0
SEQEND
  0
POLYLINE
 70
     1
  0
VERTEX
 10
45.9402
 20
0
  0
VERTEX
 10
43.7603
 20
2.17985
  0
VERTEX
 10
42.5207
 20
2.17985
  0
VERTEX
 10
40.3408
 20
8.88178e-16
  0
SEQEND
  0
POLYLINE
 70
     0
  0
SEQEND
  0
POLYLINE
 70
     0
  0
VERTEX
 10
43.757
 20
0.539485
  0
VERTEX
 10
43.1405
 20
0.539485
  0
VERTEX
 10
43.1405
 20
0.847761
  0
VERTEX
 10
43.757
 20
0.847761
  0
VERTEX
 10
43.757
 20
1.15604
  0
VERTEX
 10
43.1405
 20
1.15604
  0
SEQEND
  0
POLYLINE
 70
     0
  0
VERTEX
 10
42.2157
 20
0.539485
  0
VERTEX
 10
42.8322
 20
0.539485
  0
VERTEX
 10
42.8322
 20
0.847761
  0
VERTEX
 10
42.2157
 20
0.847761
  0
VERTEX
 10
42.2157
 20
1.15604
  0
VERTEX
 10
42.8322
 20
1.15604
  0
SEQEND
  0
POLYLINE
 70
     1
  0
VERTEX
 10
40.3408
 20
0
  0
VERTEX
 10
40.0615
 20
-3.07009
  0
VERTEX
 10
40.567
 20
-3.67667
  0
VERTEX
 10
43.637
 20
-3.95595
  0
SEQEND
  0
POLYLINE
 70
     0
  0
SEQEND
  0
POLYLINE
 70
     0
  0
VERTEX
 10
41.1502
 20
-1.81412
  0
VERTEX
 10
41.5251
 20
-2.26411
  0
VERTEX
 10
41.3001
 20
-2.45159
  0
VERTEX
 10
40.9252
 20
-2.0016
  0
VERTEX
 10
40.7002
 20
-2.18907
  0
VERTEX
 10
41.0751
 20
-2.63906
  0
SEQEND
  0
POLYLINE
 70
     0
  0
VERTEX
 10
41.8376
 20
-2.6391
  0
VERTEX
 10
41.7126
 20
-2.48911
  0
VERTEX
 10
41.4126
 20
-2.73907
  0
VERTEX
 10
41.7876
 20
-3.18906
  0
VERTEX
 10
41.6376
 20
-3.31404
  0
VERTEX
 10
41.2626
 20
-2.86405
  0
VERTEX
 10
41.4126
 20
-2.73907
  0
SEQEND
  0
POLYLINE
 70
     1
  0
VERTEX
 10
46.853
 20
-5.90546
  0
VERTEX
 10
44.2703
 20
-6.53868
  0
VERTEX
 10
44.2703
 20
-6.53868
  0
VERTEX
 10
43.637
 20
-3.95595
  0
SEQEND
  0
POLYLINE
 70
     0
  0
VERTEX
 10
43.6422
 20
-5.00984
  0
VERTEX
 10
44.0126
 20
-5.23441
  0
VERTEX
 10
44.2372
 20
-4.86397
  0
VERTEX
 10
43.8668
 20
-4.63941
  0
VERTEX
 10
43.6422
 20
-5.00984
  0
SEQEND
  0
POLYLINE
 70
     0
  0
VERTEX
 10
44.4224
 20
-4.97625
  0
VERTEX
 10
44.7929
 20
-5.20081
  0
VERTEX
 10
44.6806
 20
-5.38603
  0
VERTEX
 10
44.4954
 20
-5.27375
  0
VERTEX
 10
44.6806
 20
-5.38603
  0
VERTEX
 10
44.5683
 20
-5.57125
  0
VERTEX
 10
44.1979
 20
-5.34669
  0
SEQEND
  0
POLYLINE
 70
     1
  0
VERTEX
 10
45.9402
 20
0
  0
VERTEX
 10
48.4274
 20
-1.82128
  0
VERTEX
 10
48.6743
 20
-3.41821
  0
VERTEX
 10
46.853
 20
-5.90546
  0
SEQEND
  0
POLYLINE
 70
     0
  0
SEQEND
  0
POLYLINE
 70
     0
  0
VERTEX
 10
47.0239
 20
-3.47964
  0
VERTEX
 10
46.9297
 20
-2.87032
  0
VERTEX
 10
47.2344
 20
-2.82323
  0
VERTEX
 10
47.3286
 20
-3.43255
  0
VERTEX
 10
47.6332
 20
-3.38545
  0
VERTEX
 10
47.539
 20
-2.77614
  0
SEQEND
  0
POLYLINE
 70
     0
  0
VERTEX
 10
46.8826
 20
-2.56566
  0
VERTEX
 10
47.1873
 20
-2.51857
  0
VERTEX
 10
47.0931
 20
-1.90925
  0
VERTEX
 10
46.9408
 20
-1.9328
  0
VERTEX
 10
47.3978
 20
-1.86216
  0
SEQEND
  0
POLYLINE
 70
     1
  0
VERTEX
 10
7.91261
 20
-18.0346
  0
VERTEX
 10
5.79616
 20
-15.9271
  0
VERTEX
 10
5.79616
 20
-15.9271
  0
VERTEX
 10
7.90371
 20
-13.8106
  0
SEQEND
  0
POLYLINE
 70
     0
  0
SEQEND
  0
POLYLINE
 70
     0
  0
VERTEX
 10
7.38386
 20
-15.1601
  0
VERTEX
 10
7.38437
 20
-15.4034
  0
VERTEX
 10
6.89781
 20
-15.4044
  0
VERTEX
 10
6.8973
 20
-15.1612
  0
VERTEX
 10
6.89833
 20
-15.6477
  0
VERTEX
 10
7.06051
 20
-15.6474
  0
SEQEND
  0
POLYLINE
 70
     0
  0
VERTEX
 10
7.38642
 20
-16.3765
  0
VERTEX
 10
7.3854
 20
-15.89
  0
VERTEX
 10
7.14212
 20
-15.8905
  0
VERTEX
 10
7.14314
 20
-16.377
  0
VERTEX
 10
6.89987
 20
-16.3776
  0
VERTEX
 10
6.89884
 20
-15.891
  0
SEQEND
   0
ENDSEQ
  0
EOF
