  0
SECTION
  2
ENTITIES
  0
POLYLINE
 70
     1
  0
VERTEX
 10
0
 20
0
  0
VERTEX
 10
0.382683
 20
0
  0
VERTEX
 10
0.478354
 20
-0.490762
  0
VERTEX
 10
-0.0956707
 20
-0.490762
  0
SEQEND
  0
POLYLINE
 70
     1
  0
VERTEX
 10
0
 20
0
  0
VERTEX
 10
0.382683
 20
0
  0
VERTEX
 10
0.478354
 20
0.490762
  0
VERTEX
 10
-0.0956707
 20
0.490762
  0
SEQEND
  0
POLYLINE
 70
     1
  0
VERTEX
 10
-0.0956707
 20
-0.490762
  0
VERTEX
 10
4.34886e-14
 20
2.23142e-13
  0
VERTEX
 10
-0.354662
 20
0.14374
  0
VERTEX
 10
-0.627664
 20
-0.275151
  0
SEQEND
  0
POLYLINE
 70
     1
  0
VERTEX
 10
0.382683
 20
0
  0
VERTEX
 10
0.478354
 20
-0.490762
  0
VERTEX
 10
1.01035
 20
-0.27515
  0
VERTEX
 10
0.737345
 20
0.143741
  0
SEQEND
  0
POLYLINE
 70
     1
  0
VERTEX
 10
-0.354662
 20
0.14374
  0
VERTEX
 10
-0.627664
 20
-0.275151
  0
VERTEX
 10
-1.03972
 20
0.124495
  0
VERTEX
 10
-0.629364
 20
0.410171
  0
SEQEND
  0
POLYLINE
 70
     1
  0
VERTEX
 10
1.01035
 20
-0.27515
  0
VERTEX
 10
0.737345
 20
0.143741
  0
VERTEX
 10
1.01205
 20
0.410172
  0
VERTEX
 10
1.4224
 20
0.124497
  0
SEQEND
  0
POLYLINE
 70
     1
  0
VERTEX
 10
-1.03972
 20
0.124495
  0
VERTEX
 10
-0.629364
 20
0.410171
  0
VERTEX
 10
-0.783876
 20
0.760275
  0
VERTEX
 10
-1.27148
 20
0.649651
  0
SEQEND
  0
POLYLINE
 70
     1
  0
VERTEX
 10
1.01205
 20
0.410172
  0
VERTEX
 10
1.4224
 20
0.124497
  0
VERTEX
 10
1.65417
 20
0.649652
  0
VERTEX
 10
1.16656
 20
0.760276
  0
SEQEND
  0
POLYLINE
 70
     1
  0
VERTEX
 10
-0.629364
 20
0.410171
  0
VERTEX
 10
-0.783876
 20
0.760275
  0
VERTEX
 10
-0.373523
 20
1.04595
  0
VERTEX
 10
-0.141754
 20
0.520796
  0
SEQEND
  0
POLYLINE
 70
     1
  0
VERTEX
 10
-0.783876
 20
0.760275
  0
VERTEX
 10
-1.27148
 20
0.649651
  0
VERTEX
 10
-1.28903
 20
1.22341
  0
VERTEX
 10
-0.795571
 20
1.14278
  0
SEQEND
  0
POLYLINE
 70
     1
  0
VERTEX
 10
1.16656
 20
0.760276
  0
VERTEX
 10
1.01205
 20
0.410172
  0
VERTEX
 10
0.524437
 20
0.520795
  0
VERTEX
 10
0.756204
 20
1.04595
  0
SEQEND
  0
POLYLINE
 70
     1
  0
VERTEX
 10
1.44186
 20
1.58532
  0
VERTEX
 10
0.765367
 20
2.26182
  0
VERTEX
 10
1.04474
 20
2.67649
  0
VERTEX
 10
1.85653
 20
1.86469
  0
SEQEND
  0
POLYLINE
 70
     1
  0
VERTEX
 10
-0.191342
 20
2.26182
  0
VERTEX
 10
0.765367
 20
2.26182
  0
VERTEX
 10
0.861038
 20
2.75258
  0
VERTEX
 10
-0.287012
 20
2.75258
  0
SEQEND
  0
POLYLINE
 70
     1
  0
VERTEX
 10
-0.191342
 20
2.26182
  0
VERTEX
 10
-0.867837
 20
1.58532
  0
VERTEX
 10
-1.28251
 20
1.8647
  0
VERTEX
 10
-0.470713
 20
2.67649
  0
SEQEND
  0
POLYLINE
 70
     1
  0
VERTEX
 10
1.04474
 20
2.67649
  0
VERTEX
 10
1.85653
 20
1.86469
  0
VERTEX
 10
2.1359
 20
2.27936
  0
VERTEX
 10
1.45941
 20
2.95586
  0
SEQEND
  0
POLYLINE
 70
     1
  0
VERTEX
 10
0.861038
 20
2.75258
  0
VERTEX
 10
-0.287012
 20
2.75258
  0
VERTEX
 10
-0.191342
 20
3.24334
  0
VERTEX
 10
0.765367
 20
3.24334
  0
SEQEND
  0
POLYLINE
 70
     1
  0
VERTEX
 10
-1.28251
 20
1.8647
  0
VERTEX
 10
-0.470713
 20
2.67649
  0
VERTEX
 10
-0.885384
 20
2.95586
  0
VERTEX
 10
-1.56188
 20
2.27937
  0
SEQEND
  0
POLYLINE
 70
     1
  0
VERTEX
 10
2.1359
 20
2.27936
  0
VERTEX
 10
1.45941
 20
2.95586
  0
VERTEX
 10
1.45941
 20
3.91257
  0
VERTEX
 10
1.92135
 20
3.72123
  0
VERTEX
 10
1.92135
 20
3.1472
  0
VERTEX
 10
2.32725
 20
2.7413
  0
VERTEX
 10
2.90127
 20
2.7413
  0
VERTEX
 10
3.30717
 20
3.1472
  0
VERTEX
 10
3.30717
 20
3.72122
  0
VERTEX
 10
2.90127
 20
4.12712
  0
VERTEX
 10
2.32725
 20
4.12712
  0
VERTEX
 10
1.92135
 20
3.72123
  0
VERTEX
 10
1.45941
 20
3.91257
  0
VERTEX
 10
2.13591
 20
4.58906
  0
VERTEX
 10
3.09262
 20
4.58906
  0
VERTEX
 10
3.76911
 20
3.91257
  0
VERTEX
 10
3.76911
 20
2.95586
  0
VERTEX
 10
3.09261
 20
2.27936
  0
SEQEND
  0
POLYLINE
 70
     1
  0
VERTEX
 10
2.1359
 20
2.27936
  0
VERTEX
 10
1.85653
 20
1.86469
  0
VERTEX
 10
2.9138
 20
1.41726
  0
VERTEX
 10
3.01696
 20
1.9065
  0
SEQEND
  0
POLYLINE
 70
     1
  0
VERTEX
 10
-1.28251
 20
1.8647
  0
VERTEX
 10
-1.56188
 20
2.27937
  0
VERTEX
 10
-2.44294
 20
1.90651
  0
VERTEX
 10
-2.33978
 20
1.41726
  0
SEQEND
  0
POLYLINE
 70
     1
  0
VERTEX
 10
2.32725
 20
2.7413
  0
VERTEX
 10
2.90127
 20
2.7413
  0
VERTEX
 10
2.8056
 20
3.23207
  0
VERTEX
 10
2.42292
 20
3.23207
  0
SEQEND
  0
POLYLINE
 70
     1
  0
VERTEX
 10
3.09261
 20
2.27936
  0
VERTEX
 10
3.76911
 20
2.95586
  0
VERTEX
 10
4.18378
 20
2.67649
  0
VERTEX
 10
3.37198
 20
1.86469
  0
SEQEND
  0
POLYLINE
 70
     1
  0
VERTEX
 10
3.76911
 20
3.91257
  0
VERTEX
 10
3.76911
 20
2.95586
  0
VERTEX
 10
4.25987
 20
2.86019
  0
VERTEX
 10
4.25987
 20
4.00824
  0
SEQEND
  0
POLYLINE
 70
     1
  0
VERTEX
 10
2.32725
 20
4.12712
  0
VERTEX
 10
1.92135
 20
3.72123
  0
VERTEX
 10
2.33602
 20
3.44185
  0
VERTEX
 10
2.60662
 20
3.71245
  0
SEQEND
  0
POLYLINE
 70
     1
  0
VERTEX
 10
3.76911
 20
3.91257
  0
VERTEX
 10
3.09262
 20
4.58906
  0
VERTEX
 10
3.37199
 20
5.00373
  0
VERTEX
 10
4.18378
 20
4.19194
  0
SEQEND
  0
POLYLINE
 70
     1
  0
VERTEX
 10
3.30717
 20
3.72122
  0
VERTEX
 10
2.90127
 20
4.12712
  0
VERTEX
 10
2.6219
 20
3.71245
  0
VERTEX
 10
2.8925
 20
3.44185
  0
SEQEND
  0
POLYLINE
 70
     1
  0
VERTEX
 10
0
 20
5.76922
  0
VERTEX
 10
0.956708
 20
5.76922
  0
VERTEX
 10
1.05238
 20
5.27846
  0
VERTEX
 10
-0.095671
 20
5.27846
  0
SEQEND
  0
POLYLINE
 70
     1
  0
VERTEX
 10
0
 20
5.76922
  0
VERTEX
 10
0.956708
 20
5.76922
  0
VERTEX
 10
1.6332
 20
6.44571
  0
VERTEX
 10
1.6332
 20
7.40242
  0
VERTEX
 10
0.95671
 20
8.07892
  0
VERTEX
 10
0.765368
 20
7.61698
  0
VERTEX
 10
1.17126
 20
7.21108
  0
VERTEX
 10
1.17126
 20
6.63706
  0
VERTEX
 10
0.765367
 20
6.23116
  0
VERTEX
 10
0.191342
 20
6.23116
  0
VERTEX
 10
-0.214555
 20
6.63706
  0
VERTEX
 10
-0.214554
 20
7.21108
  0
VERTEX
 10
0.191343
 20
7.61698
  0
VERTEX
 10
0.765368
 20
7.61698
  0
VERTEX
 10
0.95671
 20
8.07892
  0
VERTEX
 10
8.26848e-07
 20
8.07892
  0
VERTEX
 10
-0.676494
 20
7.40242
  0
VERTEX
 10
-0.676494
 20
6.44572
  0
SEQEND
  0
POLYLINE
 70
     1
  0
VERTEX
 10
0
 20
5.76922
  0
VERTEX
 10
-0.095671
 20
5.27846
  0
VERTEX
 10
-1.15966
 20
5.70968
  0
VERTEX
 10
-0.886655
 20
6.12857
  0
SEQEND
  0
POLYLINE
 70
     1
  0
VERTEX
 10
-0.676494
 20
6.44572
  0
VERTEX
 10
-0.676494
 20
7.40242
  0
VERTEX
 10
-1.16726
 20
7.49809
  0
VERTEX
 10
-1.16726
 20
6.35004
  0
SEQEND
  0
POLYLINE
 70
     1
  0
VERTEX
 10
8.26848e-07
 20
8.07892
  0
VERTEX
 10
-0.676494
 20
7.40242
  0
VERTEX
 10
-1.09116
 20
7.6818
  0
VERTEX
 10
-0.27937
 20
8.49359
  0
SEQEND
  0
POLYLINE
 70
     1
  0
VERTEX
 10
8.26848e-07
 20
8.07892
  0
VERTEX
 10
0.95671
 20
8.07892
  0
VERTEX
 10
1.05238
 20
8.56968
  0
VERTEX
 10
-0.095669
 20
8.56968
  0
SEQEND
  0
POLYLINE
 70
     1
  0
VERTEX
 10
7.03795
 20
0
  0
VERTEX
 10
7.42064
 20
0
  0
VERTEX
 10
7.51631
 20
-0.490762
  0
VERTEX
 10
6.94228
 20
-0.490762
  0
SEQEND
  0
POLYLINE
 70
     1
  0
VERTEX
 10
0
 20
9.51346
  0
VERTEX
 10
0.382683
 20
9.51346
  0
VERTEX
 10
0.478354
 20
9.0227
  0
VERTEX
 10
-0.0956707
 20
9.0227
  0
SEQEND
  0
POLYLINE
 70
     1
  0
VERTEX
 10
1.45941
 20
2.95586
  0
VERTEX
 10
1.11239
 20
3.02351
  0
VERTEX
 10
1.11239
 20
3.02351
  0
VERTEX
 10
1.04474
 20
2.67649
  0
SEQEND
  0
POLYLINE
 70
     0
  0
SEQEND
  0
POLYLINE
 70
     0
  0
VERTEX
 10
1.29246
 20
2.91799
  0
VERTEX
 10
1.26858
 20
2.9019
  0
VERTEX
 10
1.2364
 20
2.94966
  0
VERTEX
 10
1.26028
 20
2.96575
  0
VERTEX
 10
1.21252
 20
2.93357
  0
VERTEX
 10
1.22325
 20
2.91765
  0
SEQEND
  0
POLYLINE
 70
     1
  0
VERTEX
 10
2.32725
 20
4.12712
  0
VERTEX
 10
2.61426
 20
3.84011
  0
VERTEX
 10
2.61426
 20
3.84011
  0
VERTEX
 10
2.90127
 20
4.12712
  0
SEQEND
  0
POLYLINE
 70
     0
  0
SEQEND
  0
POLYLINE
 70
     0
  0
VERTEX
 10
2.51049
 20
4.05609
  0
VERTEX
 10
2.57661
 20
4.05609
  0
VERTEX
 10
2.57661
 20
4.02303
  0
VERTEX
 10
2.51049
 20
4.02303
  0
VERTEX
 10
2.51049
 20
3.98997
  0
VERTEX
 10
2.57661
 20
3.98997
  0
SEQEND
  0
POLYLINE
 70
     1
  0
VERTEX
 10
2.13591
 20
4.58906
  0
VERTEX
 10
1.68591
 20
4.58906
  0
VERTEX
 10
1.45941
 20
4.36257
  0
VERTEX
 10
1.45941
 20
3.91257
  0
SEQEND
  0
POLYLINE
 70
     0
  0
SEQEND
  0
POLYLINE
 70
     0
  0
VERTEX
 10
1.80561
 20
4.37014
  0
VERTEX
 10
1.74197
 20
4.3065
  0
VERTEX
 10
1.71015
 20
4.33832
  0
VERTEX
 10
1.74197
 20
4.37014
  0
VERTEX
 10
1.71015
 20
4.33832
  0
VERTEX
 10
1.67833
 20
4.37014
  0
VERTEX
 10
1.74197
 20
4.43378
  0
SEQEND
  0
POLYLINE
 70
     1
  0
VERTEX
 10
3.09262
 20
4.58906
  0
VERTEX
 10
2.77442
 20
4.90726
  0
VERTEX
 10
2.4541
 20
4.90726
  0
VERTEX
 10
2.13591
 20
4.58906
  0
SEQEND
  0
POLYLINE
 70
     0
  0
SEQEND
  0
POLYLINE
 70
     0
  0
VERTEX
 10
2.70426
 20
4.66781
  0
VERTEX
 10
2.70426
 20
4.71281
  0
VERTEX
 10
2.61426
 20
4.71281
  0
VERTEX
 10
2.61426
 20
4.69031
  0
VERTEX
 10
2.61426
 20
4.75781
  0
SEQEND
  0
POLYLINE
 70
     1
  0
VERTEX
 10
1.45941
 20
3.91257
  0
VERTEX
 10
1.14121
 20
3.59437
  0
VERTEX
 10
1.14121
 20
3.27406
  0
VERTEX
 10
1.45941
 20
2.95586
  0
SEQEND
  0
POLYLINE
 70
     0
  0
SEQEND
  0
POLYLINE
 70
     0
  0
VERTEX
 10
1.38066
 20
3.43421
  0
VERTEX
 10
1.38066
 20
3.52421
  0
VERTEX
 10
1.33566
 20
3.52421
  0
VERTEX
 10
1.33566
 20
3.43421
  0
VERTEX
 10
1.29066
 20
3.43421
  0
VERTEX
 10
1.29066
 20
3.52421
  0
SEQEND
  0
POLYLINE
 70
     1
  0
VERTEX
 10
1.92135
 20
3.1472
  0
VERTEX
 10
2.20836
 20
3.43421
  0
VERTEX
 10
2.20836
 20
3.43421
  0
VERTEX
 10
1.92135
 20
3.72123
  0
SEQEND
  0
POLYLINE
 70
     0
  0
SEQEND
  0
POLYLINE
 70
     0
  0
VERTEX
 10
1.99238
 20
3.35249
  0
VERTEX
 10
1.99238
 20
3.33045
  0
VERTEX
 10
2.03646
 20
3.33045
  0
VERTEX
 10
2.03646
 20
3.39657
  0
VERTEX
 10
2.0585
 20
3.39657
  0
VERTEX
 10
2.0585
 20
3.33045
  0
VERTEX
 10
2.03646
 20
3.33045
  0
SEQEND
  0
POLYLINE
 70
     1
  0
VERTEX
 10
2.32725
 20
2.7413
  0
VERTEX
 10
2.32725
 20
3.1472
  0
VERTEX
 10
2.32725
 20
3.1472
  0
VERTEX
 10
1.92135
 20
3.1472
  0
SEQEND
  0
POLYLINE
 70
     0
  0
SEQEND
  0
POLYLINE
 70
     0
  0
VERTEX
 10
2.26348
 20
2.93669
  0
VERTEX
 10
2.2479
 20
2.92111
  0
VERTEX
 10
2.20114
 20
2.96786
  0
VERTEX
 10
2.21673
 20
2.98345
  0
VERTEX
 10
2.2564
 20
2.98123
  0
VERTEX
 10
2.27199
 20
2.99682
  0
SEQEND
  0
POLYLINE
 70
     1
  0
VERTEX
 10
3.30717
 20
3.1472
  0
VERTEX
 10
2.90127
 20
3.1472
  0
VERTEX
 10
2.90127
 20
3.1472
  0
VERTEX
 10
2.90127
 20
2.7413
  0
SEQEND
  0
POLYLINE
 70
     0
  0
SEQEND
  0
POLYLINE
 70
     0
  0
VERTEX
 10
3.06892
 20
3.05616
  0
VERTEX
 10
3.0923
 20
3.03279
  0
VERTEX
 10
3.11568
 20
3.05616
  0
VERTEX
 10
3.0923
 20
3.07954
  0
VERTEX
 10
3.10399
 20
3.09123
  0
VERTEX
 10
3.08061
 20
3.11461
  0
VERTEX
 10
3.03386
 20
3.06785
  0
VERTEX
 10
3.05724
 20
3.04448
  0
VERTEX
 10
3.0923
 20
3.07954
  0
SEQEND
  0
POLYLINE
 70
     1
  0
VERTEX
 10
3.30717
 20
3.72122
  0
VERTEX
 10
3.02016
 20
3.43421
  0
VERTEX
 10
3.02016
 20
3.43421
  0
VERTEX
 10
3.30717
 20
3.1472
  0
SEQEND
  0
POLYLINE
 70
     0
  0
SEQEND
  0
POLYLINE
 70
     0
  0
VERTEX
 10
3.2141
 20
3.47186
  0
VERTEX
 10
3.23614
 20
3.47186
  0
VERTEX
 10
3.23614
 20
3.53798
  0
VERTEX
 10
3.2141
 20
3.53798
  0
VERTEX
 10
3.2141
 20
3.47186
  0
VERTEX
 10
3.17002
 20
3.47186
  0
VERTEX
 10
3.17002
 20
3.4939
  0
SEQEND
  0
POLYLINE
 70
     1
  0
VERTEX
 10
0
 20
0
  0
VERTEX
 10
-0.293216
 20
0.197546
  0
VERTEX
 10
-0.293216
 20
0.197546
  0
VERTEX
 10
-0.0956707
 20
0.490762
  0
SEQEND
  0
POLYLINE
 70
     0
  0
SEQEND
  0
POLYLINE
 70
     0
  0
VERTEX
 10
-0.125859
 20
0.322258
  0
VERTEX
 10
-0.120348
 20
0.293993
  0
VERTEX
 10
-0.176879
 20
0.282973
  0
VERTEX
 10
-0.182389
 20
0.311238
  0
VERTEX
 10
-0.171369
 20
0.254707
  0
VERTEX
 10
-0.152525
 20
0.258381
  0
SEQEND
  0
POLYLINE
 70
     0
  0
VERTEX
 10
-0.165858
 20
0.226442
  0
VERTEX
 10
-0.154838
 20
0.169912
  0
VERTEX
 10
-0.0983081
 20
0.180932
  0
VERTEX
 10
-0.109328
 20
0.237463
  0
VERTEX
 10
-0.165858
 20
0.226442
  0
SEQEND
  0
POLYLINE
 70
     1
  0
VERTEX
 10
0.478354
 20
0.490762
  0
VERTEX
 10
0.6759
 20
0.197545
  0
VERTEX
 10
0.6759
 20
0.197545
  0
VERTEX
 10
0.382683
 20
1.21973e-19
  0
SEQEND
  0
POLYLINE
 70
     0
  0
SEQEND
  0
POLYLINE
 70
     0
  0
VERTEX
 10
0.473953
 20
0.144827
  0
VERTEX
 10
0.479463
 20
0.173092
  0
VERTEX
 10
0.535993
 20
0.162072
  0
VERTEX
 10
0.530483
 20
0.133807
  0
VERTEX
 10
0.541503
 20
0.190337
  0
VERTEX
 10
0.52266
 20
0.19401
  0
SEQEND
  0
POLYLINE
 70
     0
  0
VERTEX
 10
0.490483
 20
0.229622
  0
VERTEX
 10
0.495993
 20
0.257887
  0
VERTEX
 10
0.552524
 20
0.246867
  0
VERTEX
 10
0.547013
 20
0.218602
  0
VERTEX
 10
0.558034
 20
0.275132
  0
VERTEX
 10
0.53919
 20
0.278806
  0
SEQEND
  0
POLYLINE
 70
     1
  0
VERTEX
 10
-0.0956707
 20
0.490762
  0
VERTEX
 10
0.191342
 20
0.777775
  0
VERTEX
 10
0.191342
 20
0.777775
  0
VERTEX
 10
0.478354
 20
0.490762
  0
SEQEND
  0
POLYLINE
 70
     0
  0
SEQEND
  0
POLYLINE
 70
     0
  0
VERTEX
 10
0.295109
 20
0.583834
  0
VERTEX
 10
0.295109
 20
0.561794
  0
VERTEX
 10
0.228988
 20
0.561794
  0
VERTEX
 10
0.228988
 20
0.583834
  0
VERTEX
 10
0.258603
 20
0.610324
  0
VERTEX
 10
0.258603
 20
0.632364
  0
SEQEND
  0
POLYLINE
 70
     1
  0
VERTEX
 10
-0.0956707
 20
-0.490762
  0
VERTEX
 10
0.191342
 20
-0.777775
  0
VERTEX
 10
0.191342
 20
-0.777775
  0
VERTEX
 10
0.478354
 20
-0.490762
  0
SEQEND
  0
POLYLINE
 70
     0
  0
SEQEND
  0
POLYLINE
 70
     0
  0
VERTEX
 10
0.0875751
 20
-0.561794
  0
VERTEX
 10
0.120636
 20
-0.561794
  0
VERTEX
 10
0.120636
 20
-0.627915
  0
VERTEX
 10
0.0875751
 20
-0.627915
  0
VERTEX
 10
0.153696
 20
-0.627915
  0
VERTEX
 10
0.153696
 20
-0.605875
  0
SEQEND
  0
POLYLINE
 70
     0
  0
VERTEX
 10
0.186757
 20
-0.561794
  0
VERTEX
 10
0.252878
 20
-0.561794
  0
VERTEX
 10
0.252878
 20
-0.594855
  0
VERTEX
 10
0.186757
 20
-0.594855
  0
VERTEX
 10
0.186757
 20
-0.627915
  0
VERTEX
 10
0.252878
 20
-0.627915
  0
SEQEND
  0
POLYLINE
 70
     1
  0
VERTEX
 10
1.17126
 20
6.63706
  0
VERTEX
 10
0.765367
 20
6.63706
  0
VERTEX
 10
0.765367
 20
6.63706
  0
VERTEX
 10
0.765367
 20
6.23116
  0
SEQEND
  0
POLYLINE
 70
     0
  0
SEQEND
  0
POLYLINE
 70
     0
  0
VERTEX
 10
0.991463
 20
6.55771
  0
VERTEX
 10
0.968086
 20
6.53433
  0
VERTEX
 10
0.921331
 20
6.58109
  0
VERTEX
 10
0.944708
 20
6.60446
  0
VERTEX
 10
0.897954
 20
6.55771
  0
VERTEX
 10
0.913538
 20
6.54212
  0
SEQEND
  0
POLYLINE
 70
     0
  0
VERTEX
 10
0.921331
 20
6.48758
  0
VERTEX
 10
0.874576
 20
6.44082
  0
VERTEX
 10
0.851199
 20
6.4642
  0
VERTEX
 10
0.897953
 20
6.51095
  0
VERTEX
 10
0.874576
 20
6.53433
  0
VERTEX
 10
0.827821
 20
6.48758
  0
SEQEND
  0
POLYLINE
 70
     1
  0
VERTEX
 10
1.17126
 20
7.21108
  0
VERTEX
 10
0.884252
 20
6.92407
  0
VERTEX
 10
0.884252
 20
6.92407
  0
VERTEX
 10
1.17126
 20
6.63706
  0
SEQEND
  0
POLYLINE
 70
     0
  0
SEQEND
  0
POLYLINE
 70
     0
  0
VERTEX
 10
1.10023
 20
7.02783
  0
VERTEX
 10
1.10023
 20
6.99477
  0
VERTEX
 10
1.03411
 20
6.99477
  0
VERTEX
 10
1.03411
 20
7.02783
  0
VERTEX
 10
1.03411
 20
6.96171
  0
VERTEX
 10
1.05615
 20
6.96171
  0
SEQEND
  0
POLYLINE
 70
     0
  0
VERTEX
 10
1.10023
 20
6.92865
  0
VERTEX
 10
1.10023
 20
6.86253
  0
VERTEX
 10
1.06717
 20
6.86253
  0
VERTEX
 10
1.06717
 20
6.89559
  0
VERTEX
 10
1.06717
 20
6.86253
  0
VERTEX
 10
1.03411
 20
6.86253
  0
VERTEX
 10
1.03411
 20
6.92865
  0
SEQEND
  0
POLYLINE
 70
     1
  0
VERTEX
 10
0.765368
 20
7.61698
  0
VERTEX
 10
0.765368
 20
7.21108
  0
VERTEX
 10
0.765368
 20
7.21108
  0
VERTEX
 10
1.17126
 20
7.21108
  0
SEQEND
  0
POLYLINE
 70
     0
  0
SEQEND
  0
POLYLINE
 70
     0
  0
VERTEX
 10
0.844715
 20
7.43718
  0
VERTEX
 10
0.868092
 20
7.4138
  0
VERTEX
 10
0.821338
 20
7.36704
  0
VERTEX
 10
0.79796
 20
7.39042
  0
VERTEX
 10
0.844715
 20
7.34367
  0
VERTEX
 10
0.8603
 20
7.35925
  0
SEQEND
  0
POLYLINE
 70
     0
  0
VERTEX
 10
0.914847
 20
7.36704
  0
VERTEX
 10
0.89147
 20
7.34367
  0
VERTEX
 10
0.938224
 20
7.29691
  0
VERTEX
 10
0.949913
 20
7.3086
  0
VERTEX
 10
0.914847
 20
7.27353
  0
SEQEND
  0
POLYLINE
 70
     1
  0
VERTEX
 10
1.6332
 20
7.40242
  0
VERTEX
 10
1.6332
 20
7.85242
  0
VERTEX
 10
1.40671
 20
8.07892
  0
VERTEX
 10
0.95671
 20
8.07892
  0
SEQEND
  0
POLYLINE
 70
     0
  0
SEQEND
  0
POLYLINE
 70
     0
  0
VERTEX
 10
1.41428
 20
7.73272
  0
VERTEX
 10
1.38246
 20
7.76453
  0
VERTEX
 10
1.4461
 20
7.82817
  0
VERTEX
 10
1.47792
 20
7.79635
  0
VERTEX
 10
1.41428
 20
7.85999
  0
VERTEX
 10
1.39307
 20
7.83878
  0
SEQEND
  0
POLYLINE
 70
     0
  0
VERTEX
 10
1.25518
 20
7.89181
  0
VERTEX
 10
1.31882
 20
7.82817
  0
VERTEX
 10
1.35064
 20
7.85999
  0
VERTEX
 10
1.287
 20
7.92363
  0
VERTEX
 10
1.31882
 20
7.95545
  0
VERTEX
 10
1.38246
 20
7.89181
  0
SEQEND
  0
POLYLINE
 70
     1
  0
VERTEX
 10
1.6332
 20
6.44571
  0
VERTEX
 10
1.9514
 20
6.76391
  0
VERTEX
 10
1.9514
 20
7.08422
  0
VERTEX
 10
1.6332
 20
7.40242
  0
SEQEND
  0
POLYLINE
 70
     0
  0
SEQEND
  0
POLYLINE
 70
     0
  0
VERTEX
 10
1.71195
 20
6.83407
  0
VERTEX
 10
1.71195
 20
6.87907
  0
VERTEX
 10
1.80195
 20
6.87907
  0
VERTEX
 10
1.80195
 20
6.83407
  0
VERTEX
 10
1.80195
 20
6.92407
  0
VERTEX
 10
1.77195
 20
6.92407
  0
SEQEND
  0
POLYLINE
 70
     0
  0
VERTEX
 10
1.71195
 20
6.99907
  0
VERTEX
 10
1.71195
 20
6.96907
  0
VERTEX
 10
1.77195
 20
6.96907
  0
VERTEX
 10
1.77195
 20
7.05907
  0
VERTEX
 10
1.80195
 20
7.05907
  0
VERTEX
 10
1.80195
 20
6.96907
  0
VERTEX
 10
1.77195
 20
6.96907
  0
SEQEND
  0
POLYLINE
 70
     1
  0
VERTEX
 10
0.956708
 20
5.76922
  0
VERTEX
 10
1.40671
 20
5.76922
  0
VERTEX
 10
1.6332
 20
5.99571
  0
VERTEX
 10
1.6332
 20
6.44571
  0
SEQEND
  0
POLYLINE
 70
     0
  0
SEQEND
  0
POLYLINE
 70
     0
  0
VERTEX
 10
1.287
 20
5.98814
  0
VERTEX
 10
1.31882
 20
6.01996
  0
VERTEX
 10
1.38246
 20
5.95632
  0
VERTEX
 10
1.35064
 20
5.9245
  0
VERTEX
 10
1.41428
 20
5.98814
  0
VERTEX
 10
1.39307
 20
6.00936
  0
SEQEND
  0
POLYLINE
 70
     0
  0
VERTEX
 10
1.40367
 20
6.06239
  0
VERTEX
 10
1.38246
 20
6.0836
  0
VERTEX
 10
1.4461
 20
6.14724
  0
VERTEX
 10
1.46731
 20
6.12603
  0
VERTEX
 10
1.4643
 20
6.07203
  0
VERTEX
 10
1.48552
 20
6.05081
  0
SEQEND
  0
POLYLINE
 70
     1
  0
VERTEX
 10
0.191343
 20
7.61698
  0
VERTEX
 10
0.478355
 20
7.32997
  0
VERTEX
 10
0.478355
 20
7.32997
  0
VERTEX
 10
0.765368
 20
7.61698
  0
SEQEND
  0
POLYLINE
 70
     0
  0
SEQEND
  0
POLYLINE
 70
     0
  0
VERTEX
 10
0.374589
 20
7.54595
  0
VERTEX
 10
0.407649
 20
7.54595
  0
VERTEX
 10
0.407649
 20
7.47982
  0
VERTEX
 10
0.374589
 20
7.47982
  0
VERTEX
 10
0.44071
 20
7.47982
  0
VERTEX
 10
0.44071
 20
7.50187
  0
SEQEND
  0
POLYLINE
 70
     0
  0
VERTEX
 10
0.523361
 20
7.51289
  0
VERTEX
 10
0.523361
 20
7.54595
  0
VERTEX
 10
0.490301
 20
7.54595
  0
VERTEX
 10
0.490301
 20
7.51289
  0
VERTEX
 10
0.47377
 20
7.51289
  0
VERTEX
 10
0.47377
 20
7.47982
  0
VERTEX
 10
0.539891
 20
7.47982
  0
VERTEX
 10
0.539891
 20
7.51289
  0
VERTEX
 10
0.490301
 20
7.51289
  0
SEQEND
  0
POLYLINE
 70
     1
  0
VERTEX
 10
-0.214554
 20
7.21108
  0
VERTEX
 10
0.191343
 20
7.21108
  0
VERTEX
 10
0.191343
 20
7.21108
  0
VERTEX
 10
0.191343
 20
7.61698
  0
SEQEND
  0
POLYLINE
 70
     0
  0
SEQEND
  0
POLYLINE
 70
     0
  0
VERTEX
 10
-0.0347529
 20
7.29043
  0
VERTEX
 10
-0.0113755
 20
7.31381
  0
VERTEX
 10
0.0353792
 20
7.26705
  0
VERTEX
 10
0.0120018
 20
7.24367
  0
VERTEX
 10
0.0587566
 20
7.29043
  0
VERTEX
 10
0.0431717
 20
7.30601
  0
SEQEND
  0
POLYLINE
 70
     0
  0
VERTEX
 10
0.0977189
 20
7.39173
  0
VERTEX
 10
0.082134
 20
7.40732
  0
VERTEX
 10
0.0353793
 20
7.36056
  0
VERTEX
 10
0.0509641
 20
7.34498
  0
VERTEX
 10
0.0977189
 20
7.39173
  0
VERTEX
 10
0.128889
 20
7.36056
  0
VERTEX
 10
0.113304
 20
7.34498
  0
SEQEND
  0
POLYLINE
 70
     1
  0
VERTEX
 10
-0.214555
 20
6.63706
  0
VERTEX
 10
0.072458
 20
6.92407
  0
VERTEX
 10
0.072458
 20
6.92407
  0
VERTEX
 10
-0.214554
 20
7.21108
  0
SEQEND
  0
POLYLINE
 70
     0
  0
SEQEND
  0
POLYLINE
 70
     0
  0
VERTEX
 10
-0.143523
 20
6.8203
  0
VERTEX
 10
-0.143523
 20
6.88642
  0
VERTEX
 10
-0.110462
 20
6.88642
  0
VERTEX
 10
-0.110462
 20
6.8203
  0
VERTEX
 10
-0.0774015
 20
6.8203
  0
VERTEX
 10
-0.0774015
 20
6.88642
  0
SEQEND
  0
POLYLINE
 70
     0
  0
VERTEX
 10
-0.0774014
 20
6.91948
  0
VERTEX
 10
-0.0774014
 20
6.9856
  0
VERTEX
 10
-0.143523
 20
6.9856
  0
VERTEX
 10
-0.143523
 20
6.91948
  0
VERTEX
 10
-0.0774014
 20
6.91948
  0
SEQEND
  0
POLYLINE
 70
     1
  0
VERTEX
 10
0.191342
 20
6.23116
  0
VERTEX
 10
0.191342
 20
6.63706
  0
VERTEX
 10
0.191342
 20
6.63706
  0
VERTEX
 10
-0.214555
 20
6.63706
  0
SEQEND
  0
POLYLINE
 70
     0
  0
SEQEND
  0
POLYLINE
 70
     0
  0
VERTEX
 10
0.111995
 20
6.41096
  0
VERTEX
 10
0.0652404
 20
6.45772
  0
VERTEX
 10
0.0886178
 20
6.48109
  0
VERTEX
 10
0.135372
 20
6.43434
  0
VERTEX
 10
0.15875
 20
6.45772
  0
VERTEX
 10
0.111995
 20
6.50447
  0
SEQEND
  0
POLYLINE
 70
     0
  0
VERTEX
 10
0.0418631
 20
6.48109
  0
VERTEX
 10
0.0184857
 20
6.50447
  0
VERTEX
 10
0.0652405
 20
6.55122
  0
VERTEX
 10
0.0886178
 20
6.52785
  0
VERTEX
 10
0.0418631
 20
6.5746
  0
VERTEX
 10
0.0262782
 20
6.55902
  0
SEQEND
  0
POLYLINE
 70
     1
  0
VERTEX
 10
0.765367
 20
6.23116
  0
VERTEX
 10
0.478355
 20
6.51817
  0
VERTEX
 10
0.478355
 20
6.51817
  0
VERTEX
 10
0.191342
 20
6.23116
  0
SEQEND
  0
POLYLINE
 70
     0
  0
SEQEND
  0
POLYLINE
 70
     0
  0
VERTEX
 10
0.582121
 20
6.30219
  0
VERTEX
 10
0.516
 20
6.30219
  0
VERTEX
 10
0.516
 20
6.33525
  0
VERTEX
 10
0.582121
 20
6.33525
  0
VERTEX
 10
0.582121
 20
6.36831
  0
VERTEX
 10
0.516
 20
6.36831
  0
SEQEND
  0
POLYLINE
 70
     0
  0
VERTEX
 10
0.48294
 20
6.30219
  0
VERTEX
 10
0.416819
 20
6.30219
  0
VERTEX
 10
0.416819
 20
6.33525
  0
VERTEX
 10
0.48294
 20
6.33525
  0
VERTEX
 10
0.48294
 20
6.36831
  0
VERTEX
 10
0.416819
 20
6.36831
  0
SEQEND
  0
POLYLINE
 70
     1
  0
VERTEX
 10
1.44186
 20
1.58532
  0
VERTEX
 10
1.78888
 20
1.51767
  0
VERTEX
 10
1.78888
 20
1.51767
  0
VERTEX
 10
1.85653
 20
1.86469
  0
SEQEND
  0
POLYLINE
 70
     0
  0
SEQEND
  0
POLYLINE
 70
     0
  0
VERTEX
 10
1.60881
 20
1.62319
  0
VERTEX
 10
1.65657
 20
1.65537
  0
VERTEX
 10
1.67266
 20
1.63149
  0
VERTEX
 10
1.6249
 20
1.59931
  0
VERTEX
 10
1.64099
 20
1.57543
  0
VERTEX
 10
1.68875
 20
1.60761
  0
SEQEND
  0
POLYLINE
 70
     0
  0
VERTEX
 10
1.68046
 20
1.67146
  0
VERTEX
 10
1.72822
 20
1.70364
  0
VERTEX
 10
1.74431
 20
1.67976
  0
VERTEX
 10
1.72043
 20
1.66367
  0
VERTEX
 10
1.74431
 20
1.67976
  0
VERTEX
 10
1.7604
 20
1.65588
  0
VERTEX
 10
1.71264
 20
1.6237
  0
SEQEND
  0
POLYLINE
 70
     1
  0
VERTEX
 10
0.765367
 20
2.26182
  0
VERTEX
 10
0.765367
 20
1.81182
  0
VERTEX
 10
0.991861
 20
1.58532
  0
VERTEX
 10
1.44186
 20
1.58532
  0
SEQEND
  0
POLYLINE
 70
     0
  0
SEQEND
  0
POLYLINE
 70
     0
  0
VERTEX
 10
0.98429
 20
1.93153
  0
VERTEX
 10
1.01611
 20
1.89971
  0
VERTEX
 10
0.95247
 20
1.83607
  0
VERTEX
 10
0.92065
 20
1.86789
  0
VERTEX
 10
0.98429
 20
1.80425
  0
VERTEX
 10
1.0055
 20
1.82546
  0
SEQEND
  0
POLYLINE
 70
     0
  0
VERTEX
 10
1.05854
 20
1.81485
  0
VERTEX
 10
1.07975
 20
1.83607
  0
VERTEX
 10
1.14339
 20
1.77243
  0
VERTEX
 10
1.12218
 20
1.75121
  0
VERTEX
 10
1.06818
 20
1.75422
  0
VERTEX
 10
1.04696
 20
1.73301
  0
SEQEND
  0
POLYLINE
 70
     1
  0
VERTEX
 10
3.01696
 20
1.9065
  0
VERTEX
 10
3.21001
 20
1.6103
  0
VERTEX
 10
3.21001
 20
1.6103
  0
VERTEX
 10
2.9138
 20
1.41726
  0
SEQEND
  0
POLYLINE
 70
     0
  0
SEQEND
  0
POLYLINE
 70
     0
  0
VERTEX
 10
3.00728
 20
1.56068
  0
VERTEX
 10
3.01916
 20
1.61703
  0
VERTEX
 10
3.04734
 20
1.61109
  0
VERTEX
 10
3.03545
 20
1.55474
  0
VERTEX
 10
3.06363
 20
1.54879
  0
VERTEX
 10
3.07551
 20
1.60515
  0
SEQEND
  0
POLYLINE
 70
     0
  0
VERTEX
 10
3.0251
 20
1.64521
  0
VERTEX
 10
3.05328
 20
1.63927
  0
VERTEX
 10
3.06516
 20
1.69562
  0
VERTEX
 10
3.05107
 20
1.69859
  0
VERTEX
 10
3.09334
 20
1.68968
  0
SEQEND
  0
POLYLINE
 70
     1
  0
VERTEX
 10
2.9138
 20
1.41726
  0
VERTEX
 10
2.49675
 20
1.24824
  0
VERTEX
 10
2.02556
 20
1.44764
  0
VERTEX
 10
1.85653
 20
1.86469
  0
SEQEND
  0
POLYLINE
 70
     0
  0
SEQEND
  0
POLYLINE
 70
     0
  0
VERTEX
 10
2.27159
 20
1.60353
  0
VERTEX
 10
2.35448
 20
1.56845
  0
VERTEX
 10
2.33694
 20
1.52701
  0
VERTEX
 10
2.25406
 20
1.56209
  0
VERTEX
 10
2.23652
 20
1.52065
  0
VERTEX
 10
2.3194
 20
1.48557
  0
SEQEND
  0
POLYLINE
 70
     0
  0
VERTEX
 10
2.4788
 20
1.51584
  0
VERTEX
 10
2.39592
 20
1.55092
  0
VERTEX
 10
2.37838
 20
1.50948
  0
VERTEX
 10
2.46126
 20
1.4744
  0
VERTEX
 10
2.44373
 20
1.43296
  0
VERTEX
 10
2.36084
 20
1.46803
  0
SEQEND
  0
POLYLINE
 70
     1
  0
VERTEX
 10
0.765367
 20
2.26182
  0
VERTEX
 10
0.447169
 20
1.94362
  0
VERTEX
 10
0.126856
 20
1.94362
  0
VERTEX
 10
-0.191342
 20
2.26182
  0
SEQEND
  0
POLYLINE
 70
     0
  0
SEQEND
  0
POLYLINE
 70
     0
  0
VERTEX
 10
0.197012
 20
2.18307
  0
VERTEX
 10
0.242012
 20
2.18307
  0
VERTEX
 10
0.242012
 20
2.09307
  0
VERTEX
 10
0.197012
 20
2.09307
  0
VERTEX
 10
0.287012
 20
2.09307
  0
VERTEX
 10
0.287012
 20
2.12307
  0
SEQEND
  0
POLYLINE
 70
     0
  0
VERTEX
 10
0.362012
 20
2.18307
  0
VERTEX
 10
0.332012
 20
2.18307
  0
VERTEX
 10
0.332012
 20
2.12307
  0
VERTEX
 10
0.422012
 20
2.12307
  0
VERTEX
 10
0.422012
 20
2.09307
  0
VERTEX
 10
0.332012
 20
2.09307
  0
VERTEX
 10
0.332012
 20
2.12307
  0
SEQEND
  0
POLYLINE
 70
     1
  0
VERTEX
 10
2.8056
 20
3.23207
  0
VERTEX
 10
3.09882
 20
3.03452
  0
VERTEX
 10
3.09882
 20
3.03452
  0
VERTEX
 10
2.90127
 20
2.7413
  0
SEQEND
  0
POLYLINE
 70
     0
  0
SEQEND
  0
POLYLINE
 70
     0
  0
VERTEX
 10
2.93146
 20
2.90981
  0
VERTEX
 10
2.92044
 20
2.96634
  0
VERTEX
 10
2.9487
 20
2.97185
  0
VERTEX
 10
2.95972
 20
2.91532
  0
VERTEX
 10
2.98799
 20
2.92083
  0
VERTEX
 10
2.97697
 20
2.97736
  0
SEQEND
  0
POLYLINE
 70
     0
  0
VERTEX
 10
2.91126
 20
3.01345
  0
VERTEX
 10
2.91493
 20
2.9946
  0
VERTEX
 10
2.95262
 20
3.00195
  0
VERTEX
 10
2.9416
 20
3.05848
  0
VERTEX
 10
2.96044
 20
3.06215
  0
VERTEX
 10
2.97146
 20
3.00562
  0
VERTEX
 10
2.95262
 20
3.00195
  0
SEQEND
  0
POLYLINE
 70
     1
  0
VERTEX
 10
2.42292
 20
3.23207
  0
VERTEX
 10
2.61426
 20
3.42341
  0
VERTEX
 10
2.61426
 20
3.42341
  0
VERTEX
 10
2.8056
 20
3.23207
  0
SEQEND
  0
POLYLINE
 70
     0
  0
SEQEND
  0
POLYLINE
 70
     0
  0
VERTEX
 10
2.68344
 20
3.27942
  0
VERTEX
 10
2.63936
 20
3.27942
  0
VERTEX
 10
2.63936
 20
3.30146
  0
VERTEX
 10
2.68344
 20
3.30146
  0
VERTEX
 10
2.68344
 20
3.3235
  0
VERTEX
 10
2.63936
 20
3.3235
  0
SEQEND
  0
POLYLINE
 70
     0
  0
VERTEX
 10
2.61732
 20
3.29411
  0
VERTEX
 10
2.61732
 20
3.27942
  0
VERTEX
 10
2.57324
 20
3.27942
  0
VERTEX
 10
2.57324
 20
3.29411
  0
VERTEX
 10
2.59298
 20
3.31177
  0
VERTEX
 10
2.59298
 20
3.32647
  0
SEQEND
  0
POLYLINE
 70
     1
  0
VERTEX
 10
2.32725
 20
2.7413
  0
VERTEX
 10
2.1297
 20
3.03452
  0
VERTEX
 10
2.1297
 20
3.03452
  0
VERTEX
 10
2.42292
 20
3.23207
  0
SEQEND
  0
POLYLINE
 70
     0
  0
SEQEND
  0
POLYLINE
 70
     0
  0
VERTEX
 10
2.33165
 20
3.08724
  0
VERTEX
 10
2.32614
 20
3.05897
  0
VERTEX
 10
2.26961
 20
3.06999
  0
VERTEX
 10
2.27512
 20
3.09826
  0
VERTEX
 10
2.2641
 20
3.04173
  0
VERTEX
 10
2.28294
 20
3.03806
  0
SEQEND
  0
POLYLINE
 70
     0
  0
VERTEX
 10
2.25859
 20
3.01346
  0
VERTEX
 10
2.24757
 20
2.95693
  0
VERTEX
 10
2.3041
 20
2.94591
  0
VERTEX
 10
2.31512
 20
3.00244
  0
VERTEX
 10
2.25859
 20
3.01346
  0
SEQEND
  0
POLYLINE
 70
     1
  0
VERTEX
 10
-0.0956707
 20
-0.490762
  0
VERTEX
 10
-0.469473
 20
-0.648953
  0
VERTEX
 10
-0.469473
 20
-0.648953
  0
VERTEX
 10
-0.627664
 20
-0.275151
  0
SEQEND
  0
POLYLINE
 70
     0
  0
SEQEND
  0
POLYLINE
 70
     0
  0
VERTEX
 10
-0.484516
 20
-0.409811
  0
VERTEX
 10
-0.423237
 20
-0.434647
  0
VERTEX
 10
-0.435655
 20
-0.465287
  0
VERTEX
 10
-0.496934
 20
-0.440451
  0
VERTEX
 10
-0.509352
 20
-0.471091
  0
VERTEX
 10
-0.448073
 20
-0.495927
  0
SEQEND
  0
POLYLINE
 70
     0
  0
VERTEX
 10
-0.392597
 20
-0.447065
  0
VERTEX
 10
-0.331318
 20
-0.471901
  0
VERTEX
 10
-0.343736
 20
-0.502541
  0
VERTEX
 10
-0.405015
 20
-0.477705
  0
VERTEX
 10
-0.417433
 20
-0.508345
  0
VERTEX
 10
-0.356154
 20
-0.533181
  0
SEQEND
  0
POLYLINE
 70
     1
  0
VERTEX
 10
-0.354662
 20
0.14374
  0
VERTEX
 10
-0.105461
 20
0.249201
  0
VERTEX
 10
-0.105461
 20
0.249201
  0
VERTEX
 10
4.35257e-14
 20
2.23223e-13
  0
SEQEND
  0
POLYLINE
 70
     0
  0
SEQEND
  0
POLYLINE
 70
     0
  0
VERTEX
 10
-0.0954316
 20
0.0897733
  0
VERTEX
 10
-0.136285
 20
0.106331
  0
VERTEX
 10
-0.128006
 20
0.126757
  0
VERTEX
 10
-0.087153
 20
0.1102
  0
VERTEX
 10
-0.0788744
 20
0.130626
  0
VERTEX
 10
-0.119727
 20
0.147184
  0
SEQEND
  0
POLYLINE
 70
     0
  0
VERTEX
 10
-0.151192
 20
0.128227
  0
VERTEX
 10
-0.156711
 20
0.114609
  0
VERTEX
 10
-0.197564
 20
0.131166
  0
VERTEX
 10
-0.192045
 20
0.144784
  0
VERTEX
 10
-0.167114
 20
0.153735
  0
VERTEX
 10
-0.161595
 20
0.167352
  0
SEQEND
  0
POLYLINE
 70
     1
  0
VERTEX
 10
-0.867837
 20
1.58532
  0
VERTEX
 10
-0.417837
 20
1.58532
  0
VERTEX
 10
-0.191342
 20
1.81182
  0
VERTEX
 10
-0.191342
 20
2.26182
  0
SEQEND
  0
POLYLINE
 70
     0
  0
SEQEND
  0
POLYLINE
 70
     0
  0
VERTEX
 10
-0.537545
 20
1.80425
  0
VERTEX
 10
-0.505725
 20
1.83607
  0
VERTEX
 10
-0.442085
 20
1.77243
  0
VERTEX
 10
-0.473905
 20
1.74061
  0
VERTEX
 10
-0.410265
 20
1.80425
  0
VERTEX
 10
-0.431479
 20
1.82546
  0
SEQEND
  0
POLYLINE
 70
     0
  0
VERTEX
 10
-0.378446
 20
1.96335
  0
VERTEX
 10
-0.442085
 20
1.89971
  0
VERTEX
 10
-0.410265
 20
1.86789
  0
VERTEX
 10
-0.346626
 20
1.93153
  0
VERTEX
 10
-0.314806
 20
1.89971
  0
VERTEX
 10
-0.378446
 20
1.83607
  0
SEQEND
  0
POLYLINE
 70
     1
  0
VERTEX
 10
-1.28251
 20
1.8647
  0
VERTEX
 10
-1.21486
 20
1.51767
  0
VERTEX
 10
-1.21486
 20
1.51767
  0
VERTEX
 10
-0.867837
 20
1.58532
  0
SEQEND
  0
POLYLINE
 70
     0
  0
SEQEND
  0
POLYLINE
 70
     0
  0
VERTEX
 10
-1.1847
 20
1.7242
  0
VERTEX
 10
-1.13694
 20
1.69202
  0
VERTEX
 10
-1.15303
 20
1.66814
  0
VERTEX
 10
-1.20079
 20
1.70032
  0
VERTEX
 10
-1.21688
 20
1.67643
  0
VERTEX
 10
-1.16912
 20
1.64425
  0
SEQEND
  0
POLYLINE
 70
     0
  0
VERTEX
 10
-1.09332
 20
1.62791
  0
VERTEX
 10
-1.07723
 20
1.65179
  0
VERTEX
 10
-1.10111
 20
1.66788
  0
VERTEX
 10
-1.1172
 20
1.644
  0
VERTEX
 10
-1.12915
 20
1.65205
  0
VERTEX
 10
-1.14524
 20
1.62816
  0
VERTEX
 10
-1.09747
 20
1.59598
  0
VERTEX
 10
-1.08138
 20
1.61986
  0
VERTEX
 10
-1.1172
 20
1.644
  0
SEQEND
  0
POLYLINE
 70
     1
  0
VERTEX
 10
1.05238
 20
5.27846
  0
VERTEX
 10
0.734181
 20
4.96026
  0
VERTEX
 10
0.222527
 20
4.96026
  0
VERTEX
 10
-0.095671
 20
5.27846
  0
SEQEND
  0
POLYLINE
 70
     0
  0
SEQEND
  0
POLYLINE
 70
     0
  0
VERTEX
 10
0.388354
 20
5.19971
  0
VERTEX
 10
0.478354
 20
5.19971
  0
VERTEX
 10
0.478354
 20
5.15471
  0
VERTEX
 10
0.388354
 20
5.15471
  0
VERTEX
 10
0.388354
 20
5.10971
  0
VERTEX
 10
0.478354
 20
5.10971
  0
SEQEND
  0
POLYLINE
 70
     0
  0
VERTEX
 10
0.613354
 20
5.19971
  0
VERTEX
 10
0.523354
 20
5.19971
  0
VERTEX
 10
0.523354
 20
5.15471
  0
VERTEX
 10
0.613354
 20
5.15471
  0
VERTEX
 10
0.613354
 20
5.10971
  0
VERTEX
 10
0.523354
 20
5.10971
  0
SEQEND
  0
POLYLINE
 70
     1
  0
VERTEX
 10
0.956708
 20
5.76922
  0
VERTEX
 10
1.24992
 20
5.57167
  0
VERTEX
 10
1.24992
 20
5.57167
  0
VERTEX
 10
1.05238
 20
5.27846
  0
SEQEND
  0
POLYLINE
 70
     0
  0
SEQEND
  0
POLYLINE
 70
     0
  0
VERTEX
 10
1.08257
 20
5.44696
  0
VERTEX
 10
1.07155
 20
5.50349
  0
VERTEX
 10
1.09981
 20
5.509
  0
VERTEX
 10
1.11083
 20
5.45247
  0
VERTEX
 10
1.1391
 20
5.45798
  0
VERTEX
 10
1.12808
 20
5.51451
  0
SEQEND
  0
POLYLINE
 70
     0
  0
VERTEX
 10
1.06604
 20
5.53176
  0
VERTEX
 10
1.05502
 20
5.58829
  0
VERTEX
 10
1.08328
 20
5.5938
  0
VERTEX
 10
1.08879
 20
5.56553
  0
VERTEX
 10
1.08328
 20
5.5938
  0
VERTEX
 10
1.11155
 20
5.59931
  0
VERTEX
 10
1.12257
 20
5.54278
  0
SEQEND
  0
POLYLINE
 70
     1
  0
VERTEX
 10
3.37198
 20
1.86469
  0
VERTEX
 10
3.82198
 20
1.86469
  0
VERTEX
 10
4.18378
 20
2.22649
  0
VERTEX
 10
4.18378
 20
2.67649
  0
SEQEND
  0
POLYLINE
 70
     0
  0
SEQEND
  0
POLYLINE
 70
     0
  0
VERTEX
 10
3.76993
 20
2.15126
  0
VERTEX
 10
3.83357
 20
2.2149
  0
VERTEX
 10
3.86539
 20
2.18308
  0
VERTEX
 10
3.80175
 20
2.11945
  0
VERTEX
 10
3.83357
 20
2.08763
  0
VERTEX
 10
3.89721
 20
2.15126
  0
SEQEND
  0
POLYLINE
 70
     0
  0
VERTEX
 10
3.95024
 20
2.28915
  0
VERTEX
 10
3.92903
 20
2.31036
  0
VERTEX
 10
3.86539
 20
2.24672
  0
VERTEX
 10
3.8866
 20
2.22551
  0
VERTEX
 10
3.95024
 20
2.28915
  0
VERTEX
 10
3.99266
 20
2.24672
  0
VERTEX
 10
3.97145
 20
2.22551
  0
SEQEND
  0
POLYLINE
 70
     1
  0
VERTEX
 10
3.09261
 20
2.27936
  0
VERTEX
 10
3.02496
 20
1.93234
  0
VERTEX
 10
3.02496
 20
1.93234
  0
VERTEX
 10
3.37198
 20
1.86469
  0
SEQEND
  0
POLYLINE
 70
     0
  0
SEQEND
  0
POLYLINE
 70
     0
  0
VERTEX
 10
3.13048
 20
2.11242
  0
VERTEX
 10
3.16266
 20
2.06465
  0
VERTEX
 10
3.13878
 20
2.04856
  0
VERTEX
 10
3.1066
 20
2.09633
  0
VERTEX
 10
3.08272
 20
2.08024
  0
VERTEX
 10
3.1149
 20
2.03247
  0
SEQEND
  0
POLYLINE
 70
     0
  0
VERTEX
 10
3.17875
 20
2.04077
  0
VERTEX
 10
3.15487
 20
2.02468
  0
VERTEX
 10
3.18705
 20
1.97691
  0
VERTEX
 10
3.19899
 20
1.98496
  0
VERTEX
 10
3.16317
 20
1.96082
  0
SEQEND
  0
POLYLINE
 70
     1
  0
VERTEX
 10
-0.885384
 20
2.95586
  0
VERTEX
 10
-1.33538
 20
2.95586
  0
VERTEX
 10
-1.56188
 20
2.72937
  0
VERTEX
 10
-1.56188
 20
2.27937
  0
SEQEND
  0
POLYLINE
 70
     0
  0
SEQEND
  0
POLYLINE
 70
     0
  0
VERTEX
 10
-1.21568
 20
2.73694
  0
VERTEX
 10
-1.27932
 20
2.6733
  0
VERTEX
 10
-1.31114
 20
2.70512
  0
VERTEX
 10
-1.27932
 20
2.73694
  0
VERTEX
 10
-1.31114
 20
2.70512
  0
VERTEX
 10
-1.34296
 20
2.73694
  0
VERTEX
 10
-1.27932
 20
2.80058
  0
SEQEND
  0
POLYLINE
 70
     1
  0
VERTEX
 10
-0.470713
 20
2.67649
  0
VERTEX
 10
-0.538363
 20
3.02351
  0
VERTEX
 10
-0.538363
 20
3.02351
  0
VERTEX
 10
-0.885384
 20
2.95586
  0
SEQEND
  0
POLYLINE
 70
     0
  0
SEQEND
  0
POLYLINE
 70
     0
  0
VERTEX
 10
-0.568518
 20
2.81699
  0
VERTEX
 10
-0.616283
 20
2.84917
  0
VERTEX
 10
-0.600193
 20
2.87305
  0
VERTEX
 10
-0.576311
 20
2.85696
  0
VERTEX
 10
-0.600193
 20
2.87305
  0
VERTEX
 10
-0.584103
 20
2.89693
  0
VERTEX
 10
-0.536338
 20
2.86475
  0
SEQEND
  0
POLYLINE
 70
     0
  0
VERTEX
 10
-0.607986
 20
2.91302
  0
VERTEX
 10
-0.655751
 20
2.9452
  0
VERTEX
 10
-0.687931
 20
2.89744
  0
VERTEX
 10
-0.640166
 20
2.86526
  0
VERTEX
 10
-0.607986
 20
2.91302
  0
SEQEND
  0
POLYLINE
 70
     1
  0
VERTEX
 10
7.42064
 20
0
  0
VERTEX
 10
7.22929
 20
0.191342
  0
VERTEX
 10
7.22929
 20
0.191342
  0
VERTEX
 10
7.03795
 20
6.14743e-17
  0
SEQEND
  0
POLYLINE
 70
     0
  0
SEQEND
  0
POLYLINE
 70
     0
  0
VERTEX
 10
7.29847
 20
0.0473546
  0
VERTEX
 10
7.25439
 20
0.0473546
  0
VERTEX
 10
7.25439
 20
0.069395
  0
VERTEX
 10
7.27643
 20
0.069395
  0
VERTEX
 10
7.25439
 20
0.069395
  0
VERTEX
 10
7.25439
 20
0.0914354
  0
VERTEX
 10
7.29847
 20
0.0914354
  0
SEQEND
  0
POLYLINE
 70
     0
  0
VERTEX
 10
7.23235
 20
0.0473546
  0
VERTEX
 10
7.21031
 20
0.0473546
  0
VERTEX
 10
7.21031
 20
0.0914354
  0
VERTEX
 10
7.23235
 20
0.0914354
  0
VERTEX
 10
7.18827
 20
0.0914354
  0
VERTEX
 10
7.18827
 20
0.0767418
  0
SEQEND
  0
POLYLINE
 70
     1
  0
VERTEX
 10
7.51631
 20
-0.490762
  0
VERTEX
 10
7.71385
 20
-0.197546
  0
VERTEX
 10
7.71385
 20
-0.197546
  0
VERTEX
 10
7.42064
 20
2.44759e-17
  0
SEQEND
  0
POLYLINE
 70
     0
  0
SEQEND
  0
POLYLINE
 70
     0
  0
VERTEX
 10
7.54649
 20
-0.322258
  0
VERTEX
 10
7.53547
 20
-0.265728
  0
VERTEX
 10
7.56374
 20
-0.260218
  0
VERTEX
 10
7.56925
 20
-0.288483
  0
VERTEX
 10
7.56374
 20
-0.260218
  0
VERTEX
 10
7.592
 20
-0.254707
  0
VERTEX
 10
7.60302
 20
-0.311238
  0
SEQEND
  0
POLYLINE
 70
     0
  0
VERTEX
 10
7.52996
 20
-0.237463
  0
VERTEX
 10
7.51894
 20
-0.180932
  0
VERTEX
 10
7.54721
 20
-0.175422
  0
VERTEX
 10
7.55823
 20
-0.231952
  0
VERTEX
 10
7.58649
 20
-0.226442
  0
VERTEX
 10
7.57547
 20
-0.169912
  0
SEQEND
  0
POLYLINE
 70
     1
  0
VERTEX
 10
6.94228
 20
-0.490762
  0
VERTEX
 10
7.22929
 20
-0.777775
  0
VERTEX
 10
7.22929
 20
-0.777775
  0
VERTEX
 10
7.51631
 20
-0.490762
  0
SEQEND
  0
POLYLINE
 70
     0
  0
SEQEND
  0
POLYLINE
 70
     0
  0
VERTEX
 10
7.17512
 20
-0.594855
  0
VERTEX
 10
7.17512
 20
-0.561794
  0
VERTEX
 10
7.14206
 20
-0.561794
  0
VERTEX
 10
7.14206
 20
-0.594855
  0
VERTEX
 10
7.12553
 20
-0.594855
  0
VERTEX
 10
7.12553
 20
-0.627915
  0
VERTEX
 10
7.19165
 20
-0.627915
  0
VERTEX
 10
7.19165
 20
-0.594855
  0
VERTEX
 10
7.14206
 20
-0.594855
  0
SEQEND
  0
POLYLINE
 70
     1
  0
VERTEX
 10
7.03795
 20
0
  0
VERTEX
 10
6.74474
 20
-0.197545
  0
VERTEX
 10
6.74474
 20
-0.197545
  0
VERTEX
 10
6.94228
 20
-0.490762
  0
SEQEND
  0
POLYLINE
 70
     0
  0
SEQEND
  0
POLYLINE
 70
     0
  0
VERTEX
 10
6.94668
 20
-0.144827
  0
VERTEX
 10
6.93566
 20
-0.201357
  0
VERTEX
 10
6.9074
 20
-0.195847
  0
VERTEX
 10
6.91842
 20
-0.139317
  0
VERTEX
 10
6.89015
 20
-0.133807
  0
VERTEX
 10
6.87913
 20
-0.190337
  0
SEQEND
  0
POLYLINE
 70
     0
  0
VERTEX
 10
6.92648
 20
-0.248466
  0
VERTEX
 10
6.93015
 20
-0.229622
  0
VERTEX
 10
6.89247
 20
-0.222275
  0
VERTEX
 10
6.88144
 20
-0.278806
  0
VERTEX
 10
6.8626
 20
-0.275132
  0
VERTEX
 10
6.87362
 20
-0.218602
  0
VERTEX
 10
6.89247
 20
-0.222275
  0
SEQEND
  0
POLYLINE
 70
     1
  0
VERTEX
 10
-1.03972
 20
0.124495
  0
VERTEX
 10
-1.03351
 20
-0.281354
  0
VERTEX
 10
-1.03351
 20
-0.281354
  0
VERTEX
 10
-0.627664
 20
-0.275151
  0
SEQEND
  0
POLYLINE
 70
     0
  0
SEQEND
  0
POLYLINE
 70
     0
  0
VERTEX
 10
-0.957631
 20
-0.0540726
  0
VERTEX
 10
-0.910167
 20
-0.100107
  0
VERTEX
 10
-0.933185
 20
-0.123839
  0
VERTEX
 10
-0.980648
 20
-0.0778045
  0
VERTEX
 10
-1.00367
 20
-0.101536
  0
VERTEX
 10
-0.956202
 20
-0.147571
  0
SEQEND
  0
POLYLINE
 70
     0
  0
VERTEX
 10
-0.886435
 20
-0.123125
  0
VERTEX
 10
-0.862703
 20
-0.146142
  0
VERTEX
 10
-0.908738
 20
-0.193606
  0
VERTEX
 10
-0.93247
 20
-0.170588
  0
VERTEX
 10
-0.885006
 20
-0.216623
  0
VERTEX
 10
-0.869661
 20
-0.200802
  0
SEQEND
  0
POLYLINE
 70
     1
  0
VERTEX
 10
-0.354662
 20
0.14374
  0
VERTEX
 10
-0.358797
 20
0.414307
  0
VERTEX
 10
-0.358797
 20
0.414307
  0
VERTEX
 10
-0.629364
 20
0.410171
  0
SEQEND
  0
POLYLINE
 70
     0
  0
SEQEND
  0
POLYLINE
 70
     0
  0
VERTEX
 10
-0.409386
 20
0.262786
  0
VERTEX
 10
-0.441028
 20
0.293475
  0
VERTEX
 10
-0.425683
 20
0.309297
  0
VERTEX
 10
-0.409862
 20
0.293952
  0
VERTEX
 10
-0.425683
 20
0.309297
  0
VERTEX
 10
-0.410338
 20
0.325118
  0
VERTEX
 10
-0.378696
 20
0.294428
  0
SEQEND
  0
POLYLINE
 70
     0
  0
VERTEX
 10
-0.456849
 20
0.30882
  0
VERTEX
 10
-0.472671
 20
0.324165
  0
VERTEX
 10
-0.441981
 20
0.355808
  0
VERTEX
 10
-0.42616
 20
0.340463
  0
VERTEX
 10
-0.457802
 20
0.371153
  0
VERTEX
 10
-0.468032
 20
0.360605
  0
SEQEND
  0
POLYLINE
 70
     1
  0
VERTEX
 10
1.01205
 20
0.410172
  0
VERTEX
 10
0.74148
 20
0.414307
  0
VERTEX
 10
0.74148
 20
0.414307
  0
VERTEX
 10
0.737345
 20
0.143741
  0
SEQEND
  0
POLYLINE
 70
     0
  0
SEQEND
  0
POLYLINE
 70
     0
  0
VERTEX
 10
0.891384
 20
0.359112
  0
VERTEX
 10
0.859742
 20
0.328422
  0
VERTEX
 10
0.844397
 20
0.344244
  0
VERTEX
 10
0.860218
 20
0.359588
  0
VERTEX
 10
0.844397
 20
0.344244
  0
VERTEX
 10
0.829052
 20
0.360065
  0
VERTEX
 10
0.860695
 20
0.390755
  0
SEQEND
  0
POLYLINE
 70
     0
  0
VERTEX
 10
0.843921
 20
0.313077
  0
VERTEX
 10
0.812278
 20
0.282388
  0
VERTEX
 10
0.796933
 20
0.298209
  0
VERTEX
 10
0.812755
 20
0.313554
  0
VERTEX
 10
0.796933
 20
0.298209
  0
VERTEX
 10
0.781588
 20
0.31403
  0
VERTEX
 10
0.813231
 20
0.34472
  0
SEQEND
  0
POLYLINE
 70
     1
  0
VERTEX
 10
1.01035
 20
-0.27515
  0
VERTEX
 10
1.4162
 20
-0.281353
  0
VERTEX
 10
1.4162
 20
-0.281353
  0
VERTEX
 10
1.4224
 20
0.124497
  0
SEQEND
  0
POLYLINE
 70
     0
  0
SEQEND
  0
POLYLINE
 70
     0
  0
VERTEX
 10
1.19134
 20
-0.19856
  0
VERTEX
 10
1.21507
 20
-0.175543
  0
VERTEX
 10
1.26111
 20
-0.223007
  0
VERTEX
 10
1.23738
 20
-0.246024
  0
VERTEX
 10
1.28484
 20
-0.199989
  0
VERTEX
 10
1.26949
 20
-0.184168
  0
SEQEND
  0
POLYLINE
 70
     0
  0
VERTEX
 10
1.26254
 20
-0.129508
  0
VERTEX
 10
1.28555
 20
-0.15324
  0
VERTEX
 10
1.33302
 20
-0.107205
  0
VERTEX
 10
1.32151
 20
-0.0953392
  0
VERTEX
 10
1.35603
 20
-0.130937
  0
SEQEND
  0
POLYLINE
 70
     1
  0
VERTEX
 10
-1.15966
 20
5.70968
  0
VERTEX
 10
-0.984278
 20
5.29526
  0
VERTEX
 10
-0.510089
 20
5.10308
  0
VERTEX
 10
-0.095671
 20
5.27846
  0
SEQEND
  0
POLYLINE
 70
     0
  0
SEQEND
  0
POLYLINE
 70
     0
  0
VERTEX
 10
-0.740653
 20
5.45489
  0
VERTEX
 10
-0.657244
 20
5.42108
  0
VERTEX
 10
-0.674146
 20
5.37938
  0
VERTEX
 10
-0.757556
 20
5.41319
  0
VERTEX
 10
-0.774459
 20
5.37148
  0
VERTEX
 10
-0.691049
 20
5.33768
  0
SEQEND
  0
POLYLINE
 70
     0
  0
VERTEX
 10
-0.543397
 20
5.34257
  0
VERTEX
 10
-0.532129
 20
5.37038
  0
VERTEX
 10
-0.615539
 20
5.40418
  0
VERTEX
 10
-0.626807
 20
5.37638
  0
VERTEX
 10
-0.543397
 20
5.34257
  0
VERTEX
 10
-0.565934
 20
5.28697
  0
VERTEX
 10
-0.593737
 20
5.29824
  0
SEQEND
  0
POLYLINE
 70
     1
  0
VERTEX
 10
-0.886655
 20
6.12857
  0
VERTEX
 10
-1.2326
 20
6.05563
  0
VERTEX
 10
-1.2326
 20
6.05563
  0
VERTEX
 10
-1.15966
 20
5.70968
  0
SEQEND
  0
POLYLINE
 70
     0
  0
SEQEND
  0
POLYLINE
 70
     0
  0
VERTEX
 10
-1.02564
 20
6.02863
  0
VERTEX
 10
-1.05709
 20
5.98038
  0
VERTEX
 10
-1.08121
 20
5.9961
  0
VERTEX
 10
-1.06549
 20
6.02023
  0
VERTEX
 10
-1.08121
 20
5.9961
  0
VERTEX
 10
-1.10534
 20
6.01183
  0
VERTEX
 10
-1.07389
 20
6.06008
  0
SEQEND
  0
POLYLINE
 70
     0
  0
VERTEX
 10
-1.07281
 20
5.95625
  0
VERTEX
 10
-1.09694
 20
5.97198
  0
VERTEX
 10
-1.12838
 20
5.92373
  0
VERTEX
 10
-1.11632
 20
5.91586
  0
VERTEX
 10
-1.15251
 20
5.93945
  0
SEQEND
  0
POLYLINE
 70
     1
  0
VERTEX
 10
4.25987
 20
4.00824
  0
VERTEX
 10
4.57807
 20
3.69004
  0
VERTEX
 10
4.57807
 20
3.17838
  0
VERTEX
 10
4.25987
 20
2.86019
  0
SEQEND
  0
POLYLINE
 70
     0
  0
SEQEND
  0
POLYLINE
 70
     0
  0
VERTEX
 10
4.33862
 20
3.34421
  0
VERTEX
 10
4.33862
 20
3.43421
  0
VERTEX
 10
4.38362
 20
3.43421
  0
VERTEX
 10
4.38362
 20
3.38921
  0
VERTEX
 10
4.38362
 20
3.43421
  0
VERTEX
 10
4.42862
 20
3.43421
  0
VERTEX
 10
4.42862
 20
3.34421
  0
SEQEND
  0
POLYLINE
 70
     0
  0
VERTEX
 10
4.33862
 20
3.56921
  0
VERTEX
 10
4.33862
 20
3.47921
  0
VERTEX
 10
4.38362
 20
3.47921
  0
VERTEX
 10
4.38362
 20
3.56921
  0
VERTEX
 10
4.42862
 20
3.56921
  0
VERTEX
 10
4.42862
 20
3.47921
  0
SEQEND
  0
POLYLINE
 70
     1
  0
VERTEX
 10
1.01035
 20
-0.27515
  0
VERTEX
 10
0.852157
 20
-0.648953
  0
VERTEX
 10
0.852157
 20
-0.648953
  0
VERTEX
 10
0.478354
 20
-0.490762
  0
SEQEND
  0
POLYLINE
 70
     0
  0
SEQEND
  0
POLYLINE
 70
     0
  0
VERTEX
 10
0.674863
 20
-0.487763
  0
VERTEX
 10
0.705503
 20
-0.475345
  0
VERTEX
 10
0.730339
 20
-0.536625
  0
VERTEX
 10
0.699699
 20
-0.549043
  0
VERTEX
 10
0.760978
 20
-0.524207
  0
VERTEX
 10
0.7527
 20
-0.50378
  0
SEQEND
  0
POLYLINE
 70
     0
  0
VERTEX
 10
0.766782
 20
-0.450509
  0
VERTEX
 10
0.828062
 20
-0.425673
  0
VERTEX
 10
0.84048
 20
-0.456313
  0
VERTEX
 10
0.80984
 20
-0.468731
  0
VERTEX
 10
0.84048
 20
-0.456313
  0
VERTEX
 10
0.852898
 20
-0.486953
  0
VERTEX
 10
0.791618
 20
-0.511789
  0
SEQEND
  0
POLYLINE
 70
     1
  0
VERTEX
 10
0.382683
 20
0
  0
VERTEX
 10
0.488144
 20
0.249201
  0
VERTEX
 10
0.488144
 20
0.249201
  0
VERTEX
 10
0.737345
 20
0.143741
  0
SEQEND
  0
POLYLINE
 70
     0
  0
SEQEND
  0
POLYLINE
 70
     0
  0
VERTEX
 10
0.606339
 20
0.141742
  0
VERTEX
 10
0.565486
 20
0.125185
  0
VERTEX
 10
0.557208
 20
0.145611
  0
VERTEX
 10
0.577634
 20
0.15389
  0
VERTEX
 10
0.557208
 20
0.145611
  0
VERTEX
 10
0.548929
 20
0.166037
  0
VERTEX
 10
0.589782
 20
0.182595
  0
SEQEND
  0
POLYLINE
 70
     0
  0
VERTEX
 10
0.531442
 20
0.111387
  0
VERTEX
 10
0.54506
 20
0.116906
  0
VERTEX
 10
0.534022
 20
0.144141
  0
VERTEX
 10
0.493169
 20
0.127584
  0
VERTEX
 10
0.48765
 20
0.141201
  0
VERTEX
 10
0.528503
 20
0.157759
  0
VERTEX
 10
0.534022
 20
0.144141
  0
SEQEND
  0
POLYLINE
 70
     1
  0
VERTEX
 10
-0.373523
 20
1.04595
  0
VERTEX
 10
-0.721538
 20
1.10829
  0
VERTEX
 10
-0.721538
 20
1.10829
  0
VERTEX
 10
-0.783876
 20
0.760275
  0
SEQEND
  0
POLYLINE
 70
     0
  0
SEQEND
  0
POLYLINE
 70
     0
  0
VERTEX
 10
-0.539871
 20
1.00553
  0
VERTEX
 10
-0.587139
 20
0.972627
  0
VERTEX
 10
-0.603592
 20
0.996261
  0
VERTEX
 10
-0.579958
 20
1.01271
  0
VERTEX
 10
-0.603592
 20
0.996261
  0
VERTEX
 10
-0.620045
 20
1.01989
  0
VERTEX
 10
-0.572777
 20
1.0528
  0
SEQEND
  0
POLYLINE
 70
     0
  0
VERTEX
 10
-0.621741
 20
0.971929
  0
VERTEX
 10
-0.610772
 20
0.956174
  0
VERTEX
 10
-0.65804
 20
0.923267
  0
VERTEX
 10
-0.669009
 20
0.939023
  0
VERTEX
 10
-0.661021
 20
0.972698
  0
VERTEX
 10
-0.67199
 20
0.988454
  0
SEQEND
  0
POLYLINE
 70
     1
  0
VERTEX
 10
-0.141754
 20
0.520796
  0
VERTEX
 10
0.00493875
 20
0.899258
  0
VERTEX
 10
0.00493875
 20
0.899258
  0
VERTEX
 10
-0.373523
 20
1.04595
  0
SEQEND
  0
POLYLINE
 70
     0
  0
SEQEND
  0
POLYLINE
 70
     0
  0
VERTEX
 10
-0.15729
 20
0.786512
  0
VERTEX
 10
-0.177454
 20
0.777613
  0
VERTEX
 10
-0.150757
 20
0.717121
  0
VERTEX
 10
-0.130593
 20
0.72602
  0
VERTEX
 10
-0.15729
 20
0.786512
  0
VERTEX
 10
-0.116962
 20
0.80431
  0
VERTEX
 10
-0.108063
 20
0.784146
  0
SEQEND
  0
POLYLINE
 70
     1
  0
VERTEX
 10
-0.629364
 20
0.410171
  0
VERTEX
 10
-0.330247
 20
0.221679
  0
VERTEX
 10
-0.330247
 20
0.221679
  0
VERTEX
 10
-0.141754
 20
0.520796
  0
SEQEND
  0
POLYLINE
 70
     0
  0
SEQEND
  0
POLYLINE
 70
     0
  0
VERTEX
 10
-0.460015
 20
0.385148
  0
VERTEX
 10
-0.403848
 20
0.39789
  0
VERTEX
 10
-0.397477
 20
0.369807
  0
VERTEX
 10
-0.42556
 20
0.363435
  0
VERTEX
 10
-0.397477
 20
0.369807
  0
VERTEX
 10
-0.391106
 20
0.341723
  0
VERTEX
 10
-0.447273
 20
0.328981
  0
SEQEND
  0
POLYLINE
 70
     0
  0
VERTEX
 10
-0.375765
 20
0.404262
  0
VERTEX
 10
-0.319598
 20
0.417004
  0
VERTEX
 10
-0.313226
 20
0.388921
  0
VERTEX
 10
-0.369393
 20
0.376178
  0
VERTEX
 10
-0.363022
 20
0.348095
  0
VERTEX
 10
-0.306855
 20
0.360837
  0
SEQEND
  0
POLYLINE
 70
     1
  0
VERTEX
 10
-1.03972
 20
0.124495
  0
VERTEX
 10
-1.41818
 20
0.271189
  0
VERTEX
 10
-1.41818
 20
0.271189
  0
VERTEX
 10
-1.27148
 20
0.649651
  0
SEQEND
  0
POLYLINE
 70
     0
  0
SEQEND
  0
POLYLINE
 70
     0
  0
VERTEX
 10
-1.26248
 20
0.453326
  0
VERTEX
 10
-1.23579
 20
0.392834
  0
VERTEX
 10
-1.26603
 20
0.379485
  0
VERTEX
 10
-1.29273
 20
0.439977
  0
VERTEX
 10
-1.32297
 20
0.426629
  0
VERTEX
 10
-1.29628
 20
0.366137
  0
SEQEND
  0
POLYLINE
 70
     0
  0
VERTEX
 10
-1.28293
 20
0.335891
  0
VERTEX
 10
-1.25623
 20
0.275399
  0
VERTEX
 10
-1.19574
 20
0.302096
  0
VERTEX
 10
-1.22244
 20
0.362588
  0
VERTEX
 10
-1.28293
 20
0.335891
  0
SEQEND
  0
POLYLINE
 70
     1
  0
VERTEX
 10
2.33602
 20
3.44185
  0
VERTEX
 10
1.989
 20
3.37421
  0
VERTEX
 10
1.989
 20
3.37421
  0
VERTEX
 10
1.92135
 20
3.72123
  0
SEQEND
  0
POLYLINE
 70
     0
  0
SEQEND
  0
POLYLINE
 70
     0
  0
VERTEX
 10
2.01915
 20
3.58073
  0
VERTEX
 10
2.06692
 20
3.54855
  0
VERTEX
 10
2.05083
 20
3.52467
  0
VERTEX
 10
2.02695
 20
3.54076
  0
VERTEX
 10
2.05083
 20
3.52467
  0
VERTEX
 10
2.03474
 20
3.50078
  0
VERTEX
 10
1.98697
 20
3.53296
  0
SEQEND
  0
POLYLINE
 70
     0
  0
VERTEX
 10
2.11054
 20
3.48444
  0
VERTEX
 10
2.12663
 20
3.50832
  0
VERTEX
 10
2.10274
 20
3.52441
  0
VERTEX
 10
2.08665
 20
3.50053
  0
VERTEX
 10
2.07471
 20
3.50858
  0
VERTEX
 10
2.05862
 20
3.48469
  0
VERTEX
 10
2.10639
 20
3.45251
  0
VERTEX
 10
2.12248
 20
3.4764
  0
VERTEX
 10
2.08665
 20
3.50053
  0
SEQEND
  0
POLYLINE
 70
     1
  0
VERTEX
 10
2.60662
 20
3.71245
  0
VERTEX
 10
2.60662
 20
3.44185
  0
VERTEX
 10
2.60662
 20
3.44185
  0
VERTEX
 10
2.33602
 20
3.44185
  0
SEQEND
  0
POLYLINE
 70
     0
  0
SEQEND
  0
POLYLINE
 70
     0
  0
VERTEX
 10
2.45589
 20
3.49475
  0
VERTEX
 10
2.48706
 20
3.52592
  0
VERTEX
 10
2.50264
 20
3.51034
  0
VERTEX
 10
2.48706
 20
3.49475
  0
VERTEX
 10
2.50264
 20
3.51034
  0
VERTEX
 10
2.51823
 20
3.49475
  0
VERTEX
 10
2.48706
 20
3.46358
  0
SEQEND
  0
POLYLINE
 70
     0
  0
VERTEX
 10
2.50264
 20
3.54151
  0
VERTEX
 10
2.53381
 20
3.57268
  0
VERTEX
 10
2.5494
 20
3.55709
  0
VERTEX
 10
2.53381
 20
3.54151
  0
VERTEX
 10
2.5494
 20
3.55709
  0
VERTEX
 10
2.56498
 20
3.54151
  0
VERTEX
 10
2.53381
 20
3.51034
  0
SEQEND
  0
POLYLINE
 70
     1
  0
VERTEX
 10
2.32725
 20
4.12712
  0
VERTEX
 10
2.67427
 20
4.05947
  0
VERTEX
 10
2.67427
 20
4.05947
  0
VERTEX
 10
2.60662
 20
3.71245
  0
SEQEND
  0
POLYLINE
 70
     0
  0
SEQEND
  0
POLYLINE
 70
     0
  0
VERTEX
 10
2.56875
 20
3.8794
  0
VERTEX
 10
2.53657
 20
3.92716
  0
VERTEX
 10
2.56045
 20
3.94325
  0
VERTEX
 10
2.57654
 20
3.91937
  0
VERTEX
 10
2.56045
 20
3.94325
  0
VERTEX
 10
2.58433
 20
3.95934
  0
VERTEX
 10
2.61651
 20
3.91158
  0
SEQEND
  0
POLYLINE
 70
     0
  0
VERTEX
 10
2.50422
 20
4.00954
  0
VERTEX
 10
2.4883
 20
3.99881
  0
VERTEX
 10
2.52048
 20
3.95105
  0
VERTEX
 10
2.5364
 20
3.96177
  0
VERTEX
 10
2.50422
 20
4.00954
  0
VERTEX
 10
2.53606
 20
4.03099
  0
VERTEX
 10
2.54679
 20
4.01507
  0
SEQEND
  0
POLYLINE
 70
     1
  0
VERTEX
 10
-1.16726
 20
6.35004
  0
VERTEX
 10
-1.48545
 20
6.66824
  0
VERTEX
 10
-1.48545
 20
7.1799
  0
VERTEX
 10
-1.16726
 20
7.49809
  0
SEQEND
  0
POLYLINE
 70
     0
  0
SEQEND
  0
POLYLINE
 70
     0
  0
VERTEX
 10
-1.24601
 20
7.01407
  0
VERTEX
 10
-1.24601
 20
6.92407
  0
VERTEX
 10
-1.29101
 20
6.92407
  0
VERTEX
 10
-1.29101
 20
6.96907
  0
VERTEX
 10
-1.29101
 20
6.92407
  0
VERTEX
 10
-1.33601
 20
6.92407
  0
VERTEX
 10
-1.33601
 20
7.01407
  0
SEQEND
  0
POLYLINE
 70
     0
  0
VERTEX
 10
-1.24601
 20
6.78907
  0
VERTEX
 10
-1.24601
 20
6.87907
  0
VERTEX
 10
-1.29101
 20
6.87907
  0
VERTEX
 10
-1.29101
 20
6.78907
  0
VERTEX
 10
-1.33601
 20
6.78907
  0
VERTEX
 10
-1.33601
 20
6.87907
  0
SEQEND
  0
POLYLINE
 70
     1
  0
VERTEX
 10
-0.676494
 20
6.44572
  0
VERTEX
 10
-0.87404
 20
6.1525
  0
VERTEX
 10
-0.87404
 20
6.1525
  0
VERTEX
 10
-1.16726
 20
6.35004
  0
SEQEND
  0
POLYLINE
 70
     0
  0
SEQEND
  0
POLYLINE
 70
     0
  0
VERTEX
 10
-0.998752
 20
6.31986
  0
VERTEX
 10
-0.942222
 20
6.33088
  0
VERTEX
 10
-0.936712
 20
6.30261
  0
VERTEX
 10
-0.964977
 20
6.2971
  0
VERTEX
 10
-0.936712
 20
6.30261
  0
VERTEX
 10
-0.931201
 20
6.27435
  0
VERTEX
 10
-0.987732
 20
6.26333
  0
SEQEND
  0
POLYLINE
 70
     0
  0
VERTEX
 10
-0.913957
 20
6.33639
  0
VERTEX
 10
-0.908446
 20
6.30812
  0
VERTEX
 10
-0.851916
 20
6.31914
  0
VERTEX
 10
-0.854671
 20
6.33327
  0
VERTEX
 10
-0.846406
 20
6.29088
  0
SEQEND
  0
POLYLINE
 70
     1
  0
VERTEX
 10
3.37199
 20
5.00373
  0
VERTEX
 10
3.02497
 20
4.93608
  0
VERTEX
 10
3.02497
 20
4.93608
  0
VERTEX
 10
3.09262
 20
4.58906
  0
SEQEND
  0
POLYLINE
 70
     0
  0
SEQEND
  0
POLYLINE
 70
     0
  0
VERTEX
 10
3.23149
 20
4.90593
  0
VERTEX
 10
3.20761
 20
4.92202
  0
VERTEX
 10
3.17543
 20
4.87425
  0
VERTEX
 10
3.18737
 20
4.86621
  0
VERTEX
 10
3.15155
 20
4.89034
  0
SEQEND
  0
POLYLINE
 70
     0
  0
VERTEX
 10
3.13545
 20
4.86646
  0
VERTEX
 10
3.10327
 20
4.81869
  0
VERTEX
 10
3.15104
 20
4.78651
  0
VERTEX
 10
3.18322
 20
4.83428
  0
VERTEX
 10
3.13545
 20
4.86646
  0
SEQEND
  0
POLYLINE
 70
     1
  0
VERTEX
 10
4.18378
 20
4.19194
  0
VERTEX
 10
4.18378
 20
4.64194
  0
VERTEX
 10
3.82199
 20
5.00373
  0
VERTEX
 10
3.37199
 20
5.00373
  0
SEQEND
  0
POLYLINE
 70
     0
  0
SEQEND
  0
POLYLINE
 70
     0
  0
VERTEX
 10
3.89721
 20
4.58988
  0
VERTEX
 10
3.92903
 20
4.6217
  0
VERTEX
 10
3.86539
 20
4.68534
  0
VERTEX
 10
3.84948
 20
4.66943
  0
VERTEX
 10
3.89721
 20
4.71716
  0
SEQEND
  0
POLYLINE
 70
     0
  0
VERTEX
 10
3.80175
 20
4.68534
  0
VERTEX
 10
3.76993
 20
4.71716
  0
VERTEX
 10
3.83357
 20
4.7808
  0
VERTEX
 10
3.86539
 20
4.74898
  0
VERTEX
 10
3.80175
 20
4.81262
  0
VERTEX
 10
3.78054
 20
4.79141
  0
SEQEND
  0
POLYLINE
 70
     1
  0
VERTEX
 10
0.382683
 20
9.51346
  0
VERTEX
 10
0.191342
 20
9.70481
  0
VERTEX
 10
0.191342
 20
9.70481
  0
VERTEX
 10
-2.94225e-17
 20
9.51346
  0
SEQEND
  0
POLYLINE
 70
     0
  0
SEQEND
  0
POLYLINE
 70
     0
  0
VERTEX
 10
0.260519
 20
9.56082
  0
VERTEX
 10
0.216439
 20
9.56082
  0
VERTEX
 10
0.216439
 20
9.58286
  0
VERTEX
 10
0.238479
 20
9.58286
  0
VERTEX
 10
0.216439
 20
9.58286
  0
VERTEX
 10
0.216439
 20
9.6049
  0
VERTEX
 10
0.260519
 20
9.6049
  0
SEQEND
  0
POLYLINE
 70
     0
  0
VERTEX
 10
0.179705
 20
9.56082
  0
VERTEX
 10
0.194398
 20
9.56082
  0
VERTEX
 10
0.194398
 20
9.59021
  0
VERTEX
 10
0.150318
 20
9.59021
  0
VERTEX
 10
0.150318
 20
9.6049
  0
VERTEX
 10
0.194398
 20
9.6049
  0
VERTEX
 10
0.194398
 20
9.59021
  0
SEQEND
  0
POLYLINE
 70
     1
  0
VERTEX
 10
0.478354
 20
9.0227
  0
VERTEX
 10
0.6759
 20
9.31592
  0
VERTEX
 10
0.6759
 20
9.31592
  0
VERTEX
 10
0.382683
 20
9.51346
  0
SEQEND
  0
POLYLINE
 70
     0
  0
SEQEND
  0
POLYLINE
 70
     0
  0
VERTEX
 10
0.508542
 20
9.19121
  0
VERTEX
 10
0.503032
 20
9.21947
  0
VERTEX
 10
0.559562
 20
9.23049
  0
VERTEX
 10
0.565072
 20
9.20223
  0
VERTEX
 10
0.554052
 20
9.25876
  0
VERTEX
 10
0.535209
 20
9.25508
  0
SEQEND
  0
POLYLINE
 70
     0
  0
VERTEX
 10
0.492012
 20
9.276
  0
VERTEX
 10
0.486502
 20
9.30427
  0
VERTEX
 10
0.543032
 20
9.31529
  0
VERTEX
 10
0.548542
 20
9.28702
  0
VERTEX
 10
0.537522
 20
9.34355
  0
VERTEX
 10
0.518678
 20
9.33988
  0
SEQEND
  0
POLYLINE
 70
     1
  0
VERTEX
 10
-0.0956707
 20
9.0227
  0
VERTEX
 10
0.191342
 20
8.73569
  0
VERTEX
 10
0.191342
 20
8.73569
  0
VERTEX
 10
0.478354
 20
9.0227
  0
SEQEND
  0
POLYLINE
 70
     0
  0
SEQEND
  0
POLYLINE
 70
     0
  0
VERTEX
 10
0.109615
 20
8.95167
  0
VERTEX
 10
0.0875751
 20
8.95167
  0
VERTEX
 10
0.0875751
 20
8.90759
  0
VERTEX
 10
0.153696
 20
8.90759
  0
VERTEX
 10
0.153696
 20
8.88555
  0
VERTEX
 10
0.0875751
 20
8.88555
  0
VERTEX
 10
0.0875751
 20
8.90759
  0
SEQEND
  0
POLYLINE
 70
     1
  0
VERTEX
 10
0
 20
9.51346
  0
VERTEX
 10
-0.293216
 20
9.31592
  0
VERTEX
 10
-0.293216
 20
9.31592
  0
VERTEX
 10
-0.0956707
 20
9.0227
  0
SEQEND
  0
POLYLINE
 70
     0
  0
SEQEND
  0
POLYLINE
 70
     0
  0
VERTEX
 10
-0.0912696
 20
9.36864
  0
VERTEX
 10
-0.10229
 20
9.31211
  0
VERTEX
 10
-0.130555
 20
9.31762
  0
VERTEX
 10
-0.125045
 20
9.34588
  0
VERTEX
 10
-0.130555
 20
9.31762
  0
VERTEX
 10
-0.15882
 20
9.32313
  0
VERTEX
 10
-0.1478
 20
9.37966
  0
SEQEND
  0
POLYLINE
 70
     0
  0
VERTEX
 10
-0.14433
 20
9.24695
  0
VERTEX
 10
-0.116065
 20
9.24144
  0
VERTEX
 10
-0.110555
 20
9.26971
  0
VERTEX
 10
-0.13882
 20
9.27522
  0
VERTEX
 10
-0.136065
 20
9.28935
  0
VERTEX
 10
-0.16433
 20
9.29486
  0
VERTEX
 10
-0.17535
 20
9.23833
  0
VERTEX
 10
-0.147085
 20
9.23282
  0
VERTEX
 10
-0.13882
 20
9.27522
  0
SEQEND
  0
POLYLINE
 70
     1
  0
VERTEX
 10
2.6219
 20
3.71245
  0
VERTEX
 10
2.55425
 20
4.05947
  0
VERTEX
 10
2.55425
 20
4.05947
  0
VERTEX
 10
2.90127
 20
4.12712
  0
SEQEND
  0
POLYLINE
 70
     0
  0
SEQEND
  0
POLYLINE
 70
     0
  0
VERTEX
 10
2.76078
 20
4.02932
  0
VERTEX
 10
2.73689
 20
4.04541
  0
VERTEX
 10
2.70471
 20
3.99764
  0
VERTEX
 10
2.71665
 20
3.9896
  0
VERTEX
 10
2.68083
 20
4.01373
  0
SEQEND
  0
POLYLINE
 70
     0
  0
VERTEX
 10
2.71251
 20
3.95767
  0
VERTEX
 10
2.68032
 20
3.9099
  0
VERTEX
 10
2.65644
 20
3.92599
  0
VERTEX
 10
2.68862
 20
3.97376
  0
VERTEX
 10
2.66474
 20
3.98985
  0
VERTEX
 10
2.63256
 20
3.94208
  0
SEQEND
  0
POLYLINE
 70
     1
  0
VERTEX
 10
2.8925
 20
3.44185
  0
VERTEX
 10
2.6219
 20
3.44185
  0
VERTEX
 10
2.6219
 20
3.44185
  0
VERTEX
 10
2.6219
 20
3.71245
  0
SEQEND
  0
POLYLINE
 70
     0
  0
SEQEND
  0
POLYLINE
 70
     0
  0
VERTEX
 10
2.6748
 20
3.59258
  0
VERTEX
 10
2.65921
 20
3.577
  0
VERTEX
 10
2.69038
 20
3.54583
  0
VERTEX
 10
2.69818
 20
3.55362
  0
VERTEX
 10
2.6748
 20
3.53024
  0
SEQEND
  0
POLYLINE
 70
     0
  0
VERTEX
 10
2.72155
 20
3.54583
  0
VERTEX
 10
2.75272
 20
3.51466
  0
VERTEX
 10
2.73714
 20
3.49907
  0
VERTEX
 10
2.72155
 20
3.51466
  0
VERTEX
 10
2.73714
 20
3.49907
  0
VERTEX
 10
2.72155
 20
3.48349
  0
VERTEX
 10
2.69038
 20
3.51466
  0
SEQEND
  0
POLYLINE
 70
     1
  0
VERTEX
 10
3.30717
 20
3.72122
  0
VERTEX
 10
3.23952
 20
3.3742
  0
VERTEX
 10
3.23952
 20
3.3742
  0
VERTEX
 10
2.8925
 20
3.44185
  0
SEQEND
  0
POLYLINE
 70
     0
  0
SEQEND
  0
POLYLINE
 70
     0
  0
VERTEX
 10
3.05944
 20
3.47972
  0
VERTEX
 10
3.10721
 20
3.5119
  0
VERTEX
 10
3.1233
 20
3.48802
  0
VERTEX
 10
3.09942
 20
3.47193
  0
VERTEX
 10
3.1233
 20
3.48802
  0
VERTEX
 10
3.13939
 20
3.46414
  0
VERTEX
 10
3.09162
 20
3.43196
  0
SEQEND
  0
POLYLINE
 70
     0
  0
VERTEX
 10
3.14182
 20
3.51207
  0
VERTEX
 10
3.13109
 20
3.52799
  0
VERTEX
 10
3.17886
 20
3.56018
  0
VERTEX
 10
3.18958
 20
3.54425
  0
VERTEX
 10
3.18108
 20
3.5107
  0
VERTEX
 10
3.19181
 20
3.49478
  0
SEQEND
  0
POLYLINE
 70
     1
  0
VERTEX
 10
-1.28903
 20
1.22341
  0
VERTEX
 10
-1.56713
 20
0.927758
  0
VERTEX
 10
-1.56713
 20
0.927758
  0
VERTEX
 10
-1.27148
 20
0.649651
  0
SEQEND
  0
POLYLINE
 70
     0
  0
SEQEND
  0
POLYLINE
 70
     0
  0
VERTEX
 10
-1.35443
 20
1.03808
  0
VERTEX
 10
-1.35342
 20
1.00503
  0
VERTEX
 10
-1.41951
 20
1.00301
  0
VERTEX
 10
-1.42052
 20
1.03606
  0
VERTEX
 10
-1.4185
 20
0.969966
  0
VERTEX
 10
-1.39647
 20
0.970639
  0
SEQEND
  0
POLYLINE
 70
     0
  0
VERTEX
 10
-1.3714
 20
0.872178
  0
VERTEX
 10
-1.34937
 20
0.872851
  0
VERTEX
 10
-1.3514
 20
0.938941
  0
VERTEX
 10
-1.37343
 20
0.938268
  0
VERTEX
 10
-1.3714
 20
0.872178
  0
VERTEX
 10
-1.41546
 20
0.870831
  0
VERTEX
 10
-1.41614
 20
0.892861
  0
SEQEND
  0
POLYLINE
 70
     1
  0
VERTEX
 10
-0.795571
 20
1.14278
  0
VERTEX
 10
-1.00198
 20
1.42982
  0
VERTEX
 10
-1.00198
 20
1.42982
  0
VERTEX
 10
-1.28903
 20
1.22341
  0
SEQEND
  0
POLYLINE
 70
     0
  0
SEQEND
  0
POLYLINE
 70
     0
  0
VERTEX
 10
-0.943119
 20
1.22958
  0
VERTEX
 10
-0.938476
 20
1.258
  0
VERTEX
 10
-0.995316
 20
1.26729
  0
VERTEX
 10
-0.997638
 20
1.25308
  0
VERTEX
 10
-0.990672
 20
1.29571
  0
SEQEND
  0
POLYLINE
 70
     0
  0
VERTEX
 10
-1.02838
 20
1.24351
  0
VERTEX
 10
-1.02374
 20
1.27193
  0
VERTEX
 10
-1.08058
 20
1.28122
  0
VERTEX
 10
-1.0829
 20
1.26701
  0
VERTEX
 10
-1.07593
 20
1.30964
  0
SEQEND
  0
POLYLINE
 70
     1
  0
VERTEX
 10
-0.783876
 20
0.760275
  0
VERTEX
 10
-0.598471
 20
0.957374
  0
VERTEX
 10
-0.598471
 20
0.957374
  0
VERTEX
 10
-0.795571
 20
1.14278
  0
SEQEND
  0
POLYLINE
 70
     0
  0
SEQEND
  0
POLYLINE
 70
     0
  0
VERTEX
 10
-0.740277
 20
0.883829
  0
VERTEX
 10
-0.718247
 20
0.884502
  0
VERTEX
 10
-0.719594
 20
0.928562
  0
VERTEX
 10
-0.730609
 20
0.928226
  0
VERTEX
 10
-0.697564
 20
0.929236
  0
SEQEND
  0
POLYLINE
 70
     0
  0
VERTEX
 10
-0.742297
 20
0.949919
  0
VERTEX
 10
-0.743644
 20
0.993979
  0
VERTEX
 10
-0.721614
 20
0.994653
  0
VERTEX
 10
-0.720941
 20
0.972623
  0
VERTEX
 10
-0.721614
 20
0.994653
  0
VERTEX
 10
-0.699584
 20
0.995326
  0
VERTEX
 10
-0.698237
 20
0.951266
  0
SEQEND
  0
POLYLINE
 70
     1
  0
VERTEX
 10
-0.191342
 20
3.24334
  0
VERTEX
 10
-0.484558
 20
3.0458
  0
VERTEX
 10
-0.484558
 20
3.0458
  0
VERTEX
 10
-0.287012
 20
2.75258
  0
SEQEND
  0
POLYLINE
 70
     0
  0
SEQEND
  0
POLYLINE
 70
     0
  0
VERTEX
 10
-0.282612
 20
3.09852
  0
VERTEX
 10
-0.293632
 20
3.04198
  0
VERTEX
 10
-0.321897
 20
3.04749
  0
VERTEX
 10
-0.316387
 20
3.07576
  0
VERTEX
 10
-0.321897
 20
3.04749
  0
VERTEX
 10
-0.350162
 20
3.053
  0
VERTEX
 10
-0.339142
 20
3.10954
  0
SEQEND
  0
POLYLINE
 70
     0
  0
VERTEX
 10
-0.355672
 20
3.02474
  0
VERTEX
 10
-0.366692
 20
2.96821
  0
VERTEX
 10
-0.310162
 20
2.95719
  0
VERTEX
 10
-0.299142
 20
3.01372
  0
VERTEX
 10
-0.355672
 20
3.02474
  0
SEQEND
  0
POLYLINE
 70
     1
  0
VERTEX
 10
0.765367
 20
3.24334
  0
VERTEX
 10
0.447169
 20
3.56154
  0
VERTEX
 10
0.126856
 20
3.56154
  0
VERTEX
 10
-0.191342
 20
3.24334
  0
SEQEND
  0
POLYLINE
 70
     0
  0
SEQEND
  0
POLYLINE
 70
     0
  0
VERTEX
 10
0.287012
 20
3.32209
  0
VERTEX
 10
0.377012
 20
3.32209
  0
VERTEX
 10
0.377012
 20
3.36709
  0
VERTEX
 10
0.287012
 20
3.36709
  0
VERTEX
 10
0.287012
 20
3.41209
  0
VERTEX
 10
0.377012
 20
3.41209
  0
SEQEND
  0
POLYLINE
 70
     1
  0
VERTEX
 10
0.861038
 20
2.75258
  0
VERTEX
 10
1.05858
 20
3.0458
  0
VERTEX
 10
1.05858
 20
3.0458
  0
VERTEX
 10
0.765367
 20
3.24334
  0
SEQEND
  0
POLYLINE
 70
     0
  0
SEQEND
  0
POLYLINE
 70
     0
  0
VERTEX
 10
0.891226
 20
2.92108
  0
VERTEX
 10
0.885715
 20
2.94935
  0
VERTEX
 10
0.942246
 20
2.96037
  0
VERTEX
 10
0.947756
 20
2.9321
  0
VERTEX
 10
0.936735
 20
2.98863
  0
VERTEX
 10
0.917892
 20
2.98496
  0
SEQEND
  0
POLYLINE
 70
     1
  0
VERTEX
 10
-0.27937
 20
8.49359
  0
VERTEX
 10
-0.72937
 20
8.49359
  0
VERTEX
 10
-1.09116
 20
8.1318
  0
VERTEX
 10
-1.09116
 20
7.6818
  0
SEQEND
  0
POLYLINE
 70
     0
  0
SEQEND
  0
POLYLINE
 70
     0
  0
VERTEX
 10
-0.677312
 20
8.20702
  0
VERTEX
 10
-0.709132
 20
8.23884
  0
VERTEX
 10
-0.772772
 20
8.1752
  0
VERTEX
 10
-0.756862
 20
8.15929
  0
VERTEX
 10
-0.804592
 20
8.20702
  0
SEQEND
  0
POLYLINE
 70
     0
  0
VERTEX
 10
-0.772772
 20
8.11156
  0
VERTEX
 10
-0.804592
 20
8.07974
  0
VERTEX
 10
-0.868231
 20
8.14338
  0
VERTEX
 10
-0.836411
 20
8.1752
  0
VERTEX
 10
-0.900051
 20
8.11156
  0
VERTEX
 10
-0.878838
 20
8.09034
  0
SEQEND
  0
POLYLINE
 70
     1
  0
VERTEX
 10
-2.44294
 20
1.90651
  0
VERTEX
 10
-2.27391
 20
2.32356
  0
VERTEX
 10
-1.97893
 20
2.44839
  0
VERTEX
 10
-1.56188
 20
2.27937
  0
SEQEND
  0
POLYLINE
 70
     0
  0
SEQEND
  0
POLYLINE
 70
     0
  0
VERTEX
 10
-1.95022
 20
2.20053
  0
VERTEX
 10
-1.96776
 20
2.24198
  0
VERTEX
 10
-2.05064
 20
2.2069
  0
VERTEX
 10
-2.04187
 20
2.18618
  0
VERTEX
 10
-2.06818
 20
2.24834
  0
SEQEND
  0
POLYLINE
 70
     1
  0
VERTEX
 10
-2.33978
 20
1.41726
  0
VERTEX
 10
-2.63598
 20
1.6103
  0
VERTEX
 10
-2.63598
 20
1.6103
  0
VERTEX
 10
-2.44294
 20
1.90651
  0
SEQEND
  0
POLYLINE
 70
     0
  0
SEQEND
  0
POLYLINE
 70
     0
  0
VERTEX
 10
-2.47055
 20
1.73756
  0
VERTEX
 10
-2.49873
 20
1.73162
  0
VERTEX
 10
-2.48684
 20
1.67526
  0
VERTEX
 10
-2.47275
 20
1.67823
  0
VERTEX
 10
-2.51502
 20
1.66932
  0
SEQEND
  0
POLYLINE
 70
     0
  0
VERTEX
 10
-2.50908
 20
1.64114
  0
VERTEX
 10
-2.4972
 20
1.58479
  0
VERTEX
 10
-2.44084
 20
1.59667
  0
VERTEX
 10
-2.45272
 20
1.65303
  0
VERTEX
 10
-2.50908
 20
1.64114
  0
SEQEND
  0
POLYLINE
 70
     1
  0
VERTEX
 10
-1.28251
 20
1.8647
  0
VERTEX
 10
-1.45153
 20
1.44765
  0
VERTEX
 10
-1.92273
 20
1.24824
  0
VERTEX
 10
-2.33978
 20
1.41726
  0
SEQEND
  0
POLYLINE
 70
     0
  0
SEQEND
  0
POLYLINE
 70
     0
  0
VERTEX
 10
-1.86334
 20
1.53338
  0
VERTEX
 10
-1.8458
 20
1.49194
  0
VERTEX
 10
-1.76291
 20
1.52701
  0
VERTEX
 10
-1.77168
 20
1.54774
  0
VERTEX
 10
-1.74538
 20
1.48557
  0
SEQEND
  0
POLYLINE
 70
     0
  0
VERTEX
 10
-1.65613
 20
1.62107
  0
VERTEX
 10
-1.73901
 20
1.58599
  0
VERTEX
 10
-1.72147
 20
1.54455
  0
VERTEX
 10
-1.63859
 20
1.57963
  0
VERTEX
 10
-1.62105
 20
1.53819
  0
VERTEX
 10
-1.70393
 20
1.50311
  0
SEQEND
  0
POLYLINE
 70
     1
  0
VERTEX
 10
1.05238
 20
8.56968
  0
VERTEX
 10
1.24993
 20
8.27646
  0
VERTEX
 10
1.24993
 20
8.27646
  0
VERTEX
 10
0.95671
 20
8.07892
  0
SEQEND
  0
POLYLINE
 70
     0
  0
SEQEND
  0
POLYLINE
 70
     0
  0
VERTEX
 10
1.04798
 20
8.22374
  0
VERTEX
 10
1.059
 20
8.28027
  0
VERTEX
 10
1.08727
 20
8.27476
  0
VERTEX
 10
1.07624
 20
8.21823
  0
VERTEX
 10
1.10451
 20
8.21272
  0
VERTEX
 10
1.11553
 20
8.26925
  0
SEQEND
  0
POLYLINE
 70
     0
  0
VERTEX
 10
1.10104
 20
8.34543
  0
VERTEX
 10
1.07278
 20
8.35094
  0
VERTEX
 10
1.06727
 20
8.32267
  0
VERTEX
 10
1.09553
 20
8.31716
  0
VERTEX
 10
1.09278
 20
8.30303
  0
VERTEX
 10
1.12104
 20
8.29752
  0
VERTEX
 10
1.13206
 20
8.35405
  0
VERTEX
 10
1.1038
 20
8.35956
  0
VERTEX
 10
1.09553
 20
8.31716
  0
SEQEND
  0
POLYLINE
 70
     1
  0
VERTEX
 10
-0.095669
 20
8.56968
  0
VERTEX
 10
0.222529
 20
8.88788
  0
VERTEX
 10
0.734183
 20
8.88788
  0
VERTEX
 10
1.05238
 20
8.56968
  0
SEQEND
  0
POLYLINE
 70
     0
  0
SEQEND
  0
POLYLINE
 70
     0
  0
VERTEX
 10
0.568356
 20
8.64843
  0
VERTEX
 10
0.568356
 20
8.69343
  0
VERTEX
 10
0.478356
 20
8.69343
  0
VERTEX
 10
0.478356
 20
8.67093
  0
VERTEX
 10
0.478356
 20
8.73843
  0
SEQEND
  0
POLYLINE
 70
     0
  0
VERTEX
 10
0.343356
 20
8.64843
  0
VERTEX
 10
0.433356
 20
8.64843
  0
VERTEX
 10
0.433356
 20
8.69343
  0
VERTEX
 10
0.343356
 20
8.69343
  0
VERTEX
 10
0.343356
 20
8.73843
  0
VERTEX
 10
0.433356
 20
8.73843
  0
SEQEND
  0
POLYLINE
 70
     1
  0
VERTEX
 10
0.524437
 20
0.520795
  0
VERTEX
 10
0.71293
 20
0.221679
  0
VERTEX
 10
0.71293
 20
0.221679
  0
VERTEX
 10
1.01205
 20
0.410172
  0
SEQEND
  0
POLYLINE
 70
     0
  0
SEQEND
  0
POLYLINE
 70
     0
  0
VERTEX
 10
0.666408
 20
0.425143
  0
VERTEX
 10
0.722575
 20
0.4124
  0
VERTEX
 10
0.716203
 20
0.384317
  0
VERTEX
 10
0.68812
 20
0.390688
  0
VERTEX
 10
0.716203
 20
0.384317
  0
VERTEX
 10
0.709832
 20
0.356233
  0
VERTEX
 10
0.653665
 20
0.368976
  0
SEQEND
  0
POLYLINE
 70
     0
  0
VERTEX
 10
0.802578
 20
0.374564
  0
VERTEX
 10
0.806825
 20
0.393286
  0
VERTEX
 10
0.750658
 20
0.406029
  0
VERTEX
 10
0.746411
 20
0.387306
  0
VERTEX
 10
0.802578
 20
0.374564
  0
VERTEX
 10
0.794083
 20
0.337119
  0
VERTEX
 10
0.77536
 20
0.341367
  0
SEQEND
  0
POLYLINE
 70
     1
  0
VERTEX
 10
0.756204
 20
1.04595
  0
VERTEX
 10
0.377743
 20
0.899257
  0
VERTEX
 10
0.377743
 20
0.899257
  0
VERTEX
 10
0.524437
 20
0.520795
  0
SEQEND
  0
POLYLINE
 70
     0
  0
SEQEND
  0
POLYLINE
 70
     0
  0
VERTEX
 10
0.617233
 20
0.906986
  0
VERTEX
 10
0.590536
 20
0.846494
  0
VERTEX
 10
0.56029
 20
0.859842
  0
VERTEX
 10
0.586987
 20
0.920334
  0
VERTEX
 10
0.556741
 20
0.933683
  0
VERTEX
 10
0.530044
 20
0.873191
  0
SEQEND
  0
POLYLINE
 70
     1
  0
VERTEX
 10
1.16656
 20
0.760276
  0
VERTEX
 10
1.10422
 20
1.10829
  0
VERTEX
 10
1.10422
 20
1.10829
  0
VERTEX
 10
0.756204
 20
1.04595
  0
SEQEND
  0
POLYLINE
 70
     0
  0
SEQEND
  0
POLYLINE
 70
     0
  0
VERTEX
 10
1.07091
 20
0.902251
  0
VERTEX
 10
1.08736
 20
0.925885
  0
VERTEX
 10
1.0401
 20
0.958791
  0
VERTEX
 10
1.03187
 20
0.946974
  0
VERTEX
 10
1.05655
 20
0.982425
  0
SEQEND
  0
POLYLINE
 70
     0
  0
VERTEX
 10
1.00001
 20
0.95161
  0
VERTEX
 10
0.952742
 20
0.984517
  0
VERTEX
 10
0.969195
 20
1.00815
  0
VERTEX
 10
1.01646
 20
0.975244
  0
VERTEX
 10
1.03292
 20
0.998878
  0
VERTEX
 10
0.985648
 20
1.03178
  0
SEQEND
  0
POLYLINE
 70
     1
  0
VERTEX
 10
1.65417
 20
0.649652
  0
VERTEX
 10
1.80086
 20
0.27119
  0
VERTEX
 10
1.80086
 20
0.27119
  0
VERTEX
 10
1.4224
 20
0.124497
  0
SEQEND
  0
POLYLINE
 70
     0
  0
SEQEND
  0
POLYLINE
 70
     0
  0
VERTEX
 10
1.56137
 20
0.263462
  0
VERTEX
 10
1.57472
 20
0.293708
  0
VERTEX
 10
1.63521
 20
0.267011
  0
VERTEX
 10
1.62186
 20
0.236765
  0
VERTEX
 10
1.64856
 20
0.297257
  0
VERTEX
 10
1.6284
 20
0.306156
  0
SEQEND
  0
POLYLINE
 70
     0
  0
VERTEX
 10
1.65169
 20
0.38622
  0
VERTEX
 10
1.62144
 20
0.399569
  0
VERTEX
 10
1.60809
 20
0.369323
  0
VERTEX
 10
1.63834
 20
0.355974
  0
VERTEX
 10
1.63166
 20
0.340851
  0
VERTEX
 10
1.66191
 20
0.327503
  0
VERTEX
 10
1.68861
 20
0.387995
  0
VERTEX
 10
1.65836
 20
0.401343
  0
VERTEX
 10
1.63834
 20
0.355974
  0
SEQEND
  0
POLYLINE
 70
     1
  0
VERTEX
 10
1.16656
 20
0.760276
  0
VERTEX
 10
1.46567
 20
0.948769
  0
VERTEX
 10
1.46567
 20
0.948769
  0
VERTEX
 10
1.65417
 20
0.649652
  0
SEQEND
  0
POLYLINE
 70
     0
  0
SEQEND
  0
POLYLINE
 70
     0
  0
VERTEX
 10
1.5122
 20
0.745305
  0
VERTEX
 10
1.51857
 20
0.773389
  0
VERTEX
 10
1.4624
 20
0.786131
  0
VERTEX
 10
1.45922
 20
0.772089
  0
VERTEX
 10
1.46877
 20
0.814215
  0
SEQEND
  0
POLYLINE
 70
     0
  0
VERTEX
 10
1.42795
 20
0.764419
  0
VERTEX
 10
1.43432
 20
0.792503
  0
VERTEX
 10
1.37815
 20
0.805245
  0
VERTEX
 10
1.37497
 20
0.791203
  0
VERTEX
 10
1.38452
 20
0.833329
  0
SEQEND
   0
ENDSEQ
  0
EOF
